/* XPM */
static char *a3445d06907f433adfb27bc4f90f536dI3SsM6HxE1Qcnjqi[] = {
/* columns rows colors chars-per-pixel */
"64 64 22 1 ",
"  c #316F52",
". c #494949",
"X c #585858",
"o c gray45",
"O c #359066",
"+ c #36AC75",
"@ c #DF9229",
"# c #FFAA34",
"$ c #FFC97E",
"% c #28DF89",
"& c #8C8F90",
"* c #AAADAB",
"= c #AEAEAE",
"- c #FFD499",
"; c #FFE4BE",
": c #F889EC",
"> c #FFB4F7",
", c #BBC4C7",
"< c #BFCACE",
"1 c #FFCFFA",
"2 c #FEF2E1",
"3 c #FAF6F0",
/* pixels */
"oo+++ooXXXooooo..o=====&..ooooooooooooo11>ooooo..o=====&XXoooooo",
"====+=o&Xoo===o&.o====<&.oo===========o&>oo===o&Xo====<&Xoo=====",
"1===+==&Xo=====&.o====<&Xo============<& o=====&.o====<&.o====11",
">>=+==<&Xo=====&.o====<&Xo========+===<& o====<&Xo====<&.o===>>:",
">%====<&Xo====<&Xo2===<&Xo====O=+=====<& o====<&Xo===<<&.o====>>",
"%<<<=<&&Xo====<&Xo&=<<&&Xo==<<===<<=<<&& o=====&.o&=<<&&Xo==<<<<",
"&&&&&&&.Xo====<2X.;&&&&.XX&&&&&+&+++&&&  o====<&..&&&&&.XX&&&&&&",
".XXXXXX..o=;==<&..;XXX..X3XXX.O..X.X.X   o=====&X.XX.......XX...",
"XXooooo..o==;==&.O;Ooooo2oooooO..Xooooo  o====<&..ooooooooooooX.",
".oo===o&.o===2=&Oo;=O==;=====%oO.oo===o&.o====<&Xoo====+=+====o&",
".o=====&.o====;& ;;;OO;+++==%=<OOo===%<&.o====<&Xo===++========&",
".o====<&.111==<; ;2;=;+O$2$$$$$$$$#####&Xo====<&.o========%====&",
".o=====&.1:1>=<&;;2;;$$$$-;;;----$$$$@@@@@====<&Xo=========%%<<&",
" o====<&.>:1>=;;;232;;;-----------$$$$$#####<<&&Xo&====<<<<%+<&&",
" o====<&2.;;;;;2233322;;;;;$2$$$$$$$$$$$@@@@@&&.X.&&&&&&&&&&++& ",
" o=====&......;;;232;;;-$$$$$$$$$$$$$$$$$#####..X...X..X.XXXX   ",
" o=====&..oooooo;;2;;-$$$$$$$$$$$$$$$$$$$$@@@@@oooooooo.X.ooooo ",
" o=====&.oo=>>>$$;2;-$$$$$$$$$$$$$$$$$$$$$$#####==111=o&Xoo===o&",
" o=====&.o=>::;$-;;;$$;$$$$$$$$$$$$$$$$$$$$$@@@@@11::>=&.o=====&",
" o====<&.o==1;$;--;$$$$;$$$$$$$$$$$$$$$$$$$$#####=>>>=+&Xo=====&",
".o====<&Xo===$$---;$$$$$2$#####&$$$$$$$$$$$$$@@@@@=O=O+&Xo=====&",
"Xo&=<<&&Xo&;<$---$2$$$$$@;@@@==&.o$$$$$$$$$$$#####<<OO&&.o=====&",
"X.&&&&&.X.&&&$---$;$$$$#####==O&X.&$$$$$$$$$$@@@@@&&O&&..1=====&",
"XX..XXX.XX..$$--$$$$$$@@@@@===O&XXX.$$$$$$$$$$#####OO...11>====&",
"..oooooooooo$---$$2$$-#####O=O<&X.oo$$$$$$$$$$@@@@@oooo.1:>===<&",
".oo=========$;--$$$$$@@@@@=O=O=&Xoo==$-$$$$$$$#####===o&1:>===<&",
".o==========$---$$$$-#####=OO=<&Xo===$--$$$$$$@@@@@====&.>====<&",
".o==========$---$$$$-@@@@@===O<&Xo===$--$$$$$$#####====&.o====<&",
".o==========$;--$$$$;#####====<&Xo===$--$$$$$$@@@@@===<&Xo===<<&",
".o&<<<<<<<=<$;--$$$$;@@@@@&=<O&&.o&=<$--$$$$$$#####===<&Xo&==<&&",
"..&&&&&&&&&&$;--$$$$$#####&&O&&.X.&&&$--$$$$$$@@@@@====&..&&&&&.",
"XXXXX..X.XXX$---$$$$-@@@@@.O....XX...$--$$$$$$#####===<&X..XXX.X",
"ooooooo..Xoo$---$$$$-#####Ooooooooooo$--$$$$$$@@@@@===<&..oooooo",
"=====<o&.oo=$;--$$$$-@@@@@o==========$;-$$$$$$#####===<&.oo=====",
"======<&.o==$---$$$$;#####===========$;-$$$$$$@@@@@===<&Xo======",
"======<&.o==$---$$$$;@@@@@===========$;-$$$$$$#####===<&Xo======",
"======<&.o==$;--$$$$;#####=======O===$;-$$$$$$@@@@@==<<&Xo======",
"<<=<=<&&.oO=$;--$$$$;@@@@@&=<<O%O=<<<$--$$$$$$#####==<&&.o&=<<<<",
"&<&&&&&..o=O$;--$$$$;#####&&&O&&&&&&&$--$$$$$$@@@@@&&&&.XX&&&&&&",
"XXXX.....o=O$;--$$$$-@@@@@  OOO.XXX.X$--$$$$$$#####.....XXXX.XX.",
"XXooooo..oO=$;--$$$$-#####ooOoo.X.ooo$-$$$$$$$@@@@@oooooooooooo.",
"Xoo===oo.o==$;--$$$$-@@@@@==OOo&.oo==$$$$$$$$$#####===1=======o&",
"Xo=====&.o==$---$$$$$-#####==OO&.o==$$$$$$$$$$@@@@@==111====OO=&",
".o====<&.o==$$--$$$$$$@@@@@=O=<&.o==$$$$$$$$$$#####==1:1===O===&",
".o=====&.o===$---$$$$$-#####==<&.o=$$$$$$$$$$@@@@@===1:1=O=O=<<&",
".o=====&Xo&<<$---$$$$$$-@@@@@=&&Xo$$$$$$$$$$$#####&=<=1<<=O<<<&&",
"Xo====<&..&&&$$---$$$$$$$$#####X$$$$$$$$$$$$$@@@@@&&&&&&&&O&&&&.",
"Xo====<&X.....$----$$$$$$$$$$$$$$$$$$$$$$$$$#####XXXXXX.     ..X",
"Xo====<&X.oooo$$;---$$$$$$$$$$$$$$$$$$$$$$$$@@@@@oooooo   ooooo.",
"Xo====<&Xoo====$$;---$$$$$$$$$$$$$$$$$$$$$$#####======o& oo===o&",
"Xo====<&.o======$$----$$$$$$$$$$$$$$$$$$$$@@@@@========& o=====&",
".o====<&Xo=======$$-----$$$$$$$$$$$$$$$$$#####========<& o=====&",
".o===<<&Xo========$$;------$$$$$$$$$$$$$@@@@@=========<& o=====&",
"Xo&==<&&Xo&=<<<<*O<$$$------------$$$$$#####<===<<<=<<&& o=====&",
"X.&&&&&.X.&&&&&&&OO&O$$$$;;------$$$$@@@@@&&&&&&&&&&&&&. o=====&",
"XX.XX...........X...XXXX$$$$$$$$$$#####XXXX..XXX...XXX.. o====O&",
"..oooooooooooooXX.ooooo..o====<&X.ooooooooooooo..Xooooo. o=O==O&",
" oo===========o&Xoo===o&Xo===O<OXoo===========o&Xoo===o&.o=O=+=&",
" o============,&.o=====&Xo====<OXo============<&Xo====<&.o=+++=&",
" o===========<<&.o=====&Xo===<<&Xo============<&.o====<&.o===+=&",
" o=======%++=<<&.o====<&.o===<<&.o============<&.o====<&.o===+O&",
" o&<<==++==<<<&&.o====<&Xo&<<<&&.o&<<<<<1<=<=<&&.o====<&.o&===&O",
"  &&&&+&&&&&&&&.Xo====<&X.&&&&&...&&&&&11>&&&&&.Xo====<&..&&&&& ",
"      +..XXXXX.X.o====<&XXXXXXX.XXXX...11>.XXXXXXo====<&.. .    "
};
