/* XPM */
static char *result[] = {
/* columns rows colors chars-per-pixel */
"64 64 32 1 ",
"  c #303233",
". c #373A3B",
"X c #234538",
"o c #2A3F46",
"O c #265641",
"+ c #266349",
"@ c #316F52",
"# c #444748",
"$ c #494949",
"% c #515557",
"& c #585858",
"* c #626465",
"= c #6B7275",
"- c gray45",
"; c #832000",
": c #B32B00",
"> c #C52F00",
", c #ED3A02",
"< c #359066",
"1 c #36AC75",
"2 c #FFC97E",
"3 c #28DF89",
"4 c #29DF89",
"5 c #8C8F90",
"6 c #AAADAB",
"7 c #AEAEAE",
"8 c #FCE0BA",
"9 c #F889EC",
"0 c #FFB4F7",
"q c #BBC4C7",
"w c #BFCACE",
"e c #FFCFFA",
/* pixels */
"--111--&&&-----$$-777775$$-------------ee0-----$$-777775&&------",
"777717-5&--777-5$-7777w5$--77777777777-50--777-5&-7777w5&--77777",
"e7771775&-777775$-7777w5&-777777777777w5@-777775$-7777w5$-7777ee",
"007177w5&-777775$-7777w5&-777777771777w5@-7777w5&-7777w5$-777009",
"037777w5&-7777w5&-7777w5&-7777<7177777w5@-7777w5&-277ww5$-777700",
"3www7w55&-7772w5&-57ww55&-77ww777ww7ww55@-777775$-27ww55&-77wwww",
"5555555$&-777285&$55555$&&5555515111555@@-7777w5$825555$&&555555",
"$&&&&&&$$-777285$$&&&&$$&&&&&$<$$&$&$&@@@-777775&82&$$$$$$$&&$$$",
"&&-----$$-777285$<-<----------<$$&-----@@-7777w5$82-----------&$",
"$--777-5$-777288<--7<777777773-<$--777-5$-7777w588277771717777-5",
"$-777775$-7772288-77<<71117737w<<-7773w5$-7777w88227711777777775",
"$-7777w5$eee77288877771<7<<377w5<-777735&-7777888277777777377775",
"$-777775$e9e0728888777<7777777w22-777735$-7778888277777777733ww5",
"@-7777w5$09e072288888ewwww,,,,2882,,,,45$-5888882257777wwww31w55",
"@-7777w5$$00055288888885,,>>;ww88ww;>>,,&88888882$5555555555115@",
"@-777775$$$$$$@2888888888>>>;;;ww;;;>>>8888888882$$$&$$&$&&&&@@@",
"@-777775$$------288888888w;:::;;;;:::;w888888882-------$&$-----@",
"@-777775$--7000772888888w;;:>>::::>>:;;w8888882777eee7-5&--777-5",
"@-777775$-7099ee7728888w;;:>>,>>>>,>>:;;w88882777ee99075$-777775",
"@-7777w5$-77eee7777288w;;:>>>>,,,,>>>>:;;w88277777000715&-777775",
"$-7777w5&-77777777,;ww;;:>>>>>>88>>>>>>:;;ww;,77777<7<15&-777775",
"&-57ww55&-57w7wwww:;;;;:>>>>>>8oo8>>>>>>:;;;;:eww7ww<<55$-777775",
"&$55555$&$5555555,>::::>>>,>>w8o88w>>,>>>::::>,05555<55$$e777775",
"&&$$&&&$&&$$&$&$0,>>>>>,,,,>:;;;;;;:>,,,,>>>>>,0@@@<<$$$ee077775",
"$$-------------$0,>>>>>>>>>>;>>>>>>;>>>>>>>>>>,@@@-----$e90777w5",
"$--77777777777-50,>>>>888>>>>>>>>>>>>>>888>>>>,5@--777-5e90777w5",
"$-777777777777w5$,>>>>8oo88>>>>>>>>>>88oo8>>>>,5@-777775$07777w5",
"$-777777777777w5&,>::88o888>>>>>>>>>>88o888::>,5@-777775$-7777w5",
"$-7777*777777<w5&,>:;;;;;;w>>>,>>,>>>w;;;;;;:>,eee7777w5&-777ww5",
"$-5www==ww7w7<<5&,:;>>>>>>;>>>,>>,>>>;>>>>>>;:,e900777w5&-577w55",
"$$5555%%5555<55$&,:::::>>>>::,>>>>,::>>>>:::::,000777775$$55555$",
"&&&&&$ . &&&&&$<&::;;;:>>>::;>>>>>>;::>>>:;;;::$$-7777w5&$$&&&$&",
"-------  .-----&<:;,>>;:>::;,>>>>>>,;::>:;>>,;:$&-7777w5$$------",
"77777w-% ##*77-5@;,>>>>>::;,>>>>>>>>,;::>>>>>,;5&-7777w5$--77777",
"777777w5 #**O*w1<,>>>>>>:;>>;;;>>;;;>>;:>>>>>>,1&-7777w5&-777777",
"777777w5$#**O++%,>>>>>>>>:;;ooo;;ooo;;:>>>>>>>>,&-7777w5&-777777",
"777777w5$-*****,>>>>>oo>>8:::o::::o:::8>>oo>>>>>,-777ww5&-777777",
"ww7w7w55$-<***=,>>>>oooo82>>>>>>>>>>>>28oooo>>>>,-577w55$-57wwww",
"5w55555$$-7<*+*,>>>ooooo2>>>>>>>>>>>>>>2ooooo>>>,$55555$&&555555",
"&&&&$$$$$-7<1*=,>>>oooo82o>>>>>>>>>>>>o28oooo>>>,&&$$$$$&&&&$&&$",
"&&-----$$-<7**=,>>>ooo882oo>>>>>>>>>>oo288ooo>>>,$-------------$",
"&--777--$-77**=%>>>>oo882ooww>>ww>>wwoo288oo>>>><--777e7777777-5",
"&-777775$-77**=%X>>>>o2882o2wwwoowww2o2882o>>>>5$-777eee7777<<75",
"$-7777w5$-777*=%X#>>>>w882oo888oo888oo288w>>>><<<-777e9e777<7775",
"$-777775$-777w=%X#*>>>>w82oo28oooo82oo28w>>>><w5$-777e9e7<7<7ww5",
"$-777775&-5www5% #%>>>>>w82oo2oooo2oo28w>>>>>w<5$-57w7eww7<www55",
"&-7777w5$$55555$. %%>>>>>w2oooooooooo2w>>>>>55<&&$55555555<5555$",
"&-7777w5&$$$$$$$$$. .>>>>>woo8oooo8oow>>>>>@<$&&$&&&&&&$@@@@@$$&",
"&-7777w5&$---------###>>>>>>wwwoowww>>>>>>-------------@@@-----$",
"&-7777w5&--7777777777*#>>>>>>>>>>>>>>>>>>--77777777777-5@--777-5",
"&-7777w5$-777777777777w%>>>>>>>>>>>>>>>>@-77777777777775@-777775",
"$-7777w5&-77777777777735&>>>>>>>>>>>>>>5@-777777777777w5@-777775",
"$-777ww5&-77777777117335&-7>>>>>>>>>>7w5$-777777777777w5@-777775",
"&-577w55&-57wwww6<w71355$-77<7w5&-5w7w55$-57w777www7ww55@-777775",
"&$55555$&$5555555<<5<15$$-7777w5$$55555$&$5555555555555$@-777775",
"&&$&&$$$$$$$$$$$&$$$&&&&$-7777w5&&$$$$$&&&&$$&&&$$$&&&$$@-7777<5",
"$$-------------&&$-----$$-7777w5&$-------------$$&-----$@-7<77<5",
"@--77777777777-5&--777-5&-777<w<&--77777777777-5&--777-5$-7<7175",
"@-777777777777q5$-777775&-7777w<&-777777777777w5&-7777w5$-711175",
"@-77777777777ww5$-777775&-777ww5&-777777777777w5$-7777w5$-777175",
"@-77777773117ww5$-7777w5$-777ww5$-777777777777w5$-7777w5$-7771<5",
"@-5ww771177www55$-7777w5&-5www55$-5wwwwwew7w7w55$-7777w5$-57775<",
"@@5555155555555$&-7777w5&$55555$$$55555ee055555$&-7777w5$$55555@",
"@@@@@@1$$&&&&&$&$-7777w5&&&&&&&$&&&&$$$ee0$&&&&&&-7777w5$$@$@@@@"
};
