/* XPM */
static char *result[] = {
/* columns rows colors chars-per-pixel */
"64 64 35 1 ",
"  c #303233",
". c #373A3B",
"X c #234538",
"o c #2A3F46",
"O c #265641",
"+ c #266349",
"@ c #316F52",
"# c #444748",
"$ c #494949",
"% c #515557",
"& c #585858",
"* c #626465",
"= c #6B7275",
"- c gray45",
"; c #832000",
": c #B32B00",
"> c #B42B00",
", c #C42F00",
"< c #C52F00",
"1 c #ED3A02",
"2 c #359066",
"3 c #36AC75",
"4 c #DDB276",
"5 c #FFC97E",
"6 c #28DF89",
"7 c #29DF89",
"8 c #8C8F90",
"9 c #AAADAB",
"0 c #AEAEAE",
"q c #FCE0BA",
"w c #F889EC",
"e c #FFB4F7",
"r c #BBC4C7",
"t c #BFCACE",
"y c #FFCFFA",
/* pixels */
"--333--&&&-----$$-000008$$-------------yye-----$$-000008&&------",
"000030-8&--000-8$-0000t8$--00000000000-8e--000-8&-0000t8&--00000",
"y0003008&-000008$-0000t8&-000000000000t8@-000008$-0000t8$-0000yy",
"ee0300t8&-000008$-0000t8&-000000003000t8@-0000t8&-0000t8$-000eew",
"e60000t8&-0000t8&-0000t8&-000020300000t8@-0000t8&-000tt8$-0000ee",
"6ttt0t88&-0000t8&-80tt88&-00tt000tt0tt88@-000008$-80tt88&-00tttt",
"8888888$&-000048&$88888$&&8888838333888@@-0050t8$$88888$&&888888",
"$&&&&&&$$-000045$$&&&&$$&&&&&$2$$&$&$&@@@-0q5008&$&&$$$$$$$&&$$$",
"&&-----$$-000045$2-2----------2$$&-----@@-0q50t8$$------------&$",
"$--000-8$-0000452--02000000006-2$--000-8$-0q50t8&--00003030000-8",
"$-000008$-0000455-002203330060t22-0006t8$-qq50t8&-00033000000008",
"$-0000t8$yyy004455000032022600t82-000068&qq550t8$-00000000600008",
"$-000008$ywye0t455500055000000t8@-000068qqq500t8&-00000000066tt8",
"@-0000t8$ewye0845555t5qq511111111111007qqqq5tt88&-80000tttt63t88",
"@-0000t8$$eee88445554tqqtt;<<<<<<<<<<qqqqq55888$&$8888888888338@",
"@-000008$$$$$$@@45544;tt;;;<<<<<<<<qqqqqqq5&&&$$&$$$&$$&$&&&&@@@",
"@-000008$$------44441:;;;::<<<<::qqqqqqqqq5------------$&$-----@",
"@-000008$--0eee00441<<:::<<<<<:;tqqqqqqqq5-0000000yyy0-8&--000-8",
"@-000008$-0ewwyy0041<1<<<1<<<<:;;tqqqqqq5<1000000yywwe08$-000008",
"@-0000t8$-00yyy0001<<<111<<<<<<:;;tqqqq5<<<1000000eee038&-000008",
"$-0000t8&-000000001<<<qq<<<<<<<<:;;tqq5<<<<<100000020238&-000008",
"&-80tt88&-80t0ttt1<<<qooq<<<<<<<<:;;tt;:<<<<1yytt0tt2288$-000008",
"&$88888$&$888888811<<qqoqt<<1<<<<<:;;;;:<<<<<1ye8888288$$y000008",
"&&$$&&&$&&$$&$&$e11<:;;;;;:<1111<<<::::<<<<<<1ee@@@22$$$yye00008",
"$$-------------$e1<<;<<<<<;<<<<<<<<<<<<<<<<<<<1@@@-----$ywe000t8",
"$--00000000000-81q<<<<<<<<<<<<qqq<<<<<<<<<<<<<18@--000-8ywe000t8",
"$-000000000000t81oq<<<<<<<<<qqooq<<<<<<<<<<<<<18@-000008$e0000t8",
"$-000000000000t81oq<<<<<<<<<qqqoqq:<<<<<<<<<<<18@-000008$-0000t8",
"$-0000*0000002t81;t<<1<<1<<<t;;;;;;:<<<<<<<<<<1yyy0000t8&-000tt8",
"$-8ttt==tt0t02281<;:<1<<1<<,;<<<<<<;<<<<<<<<<<1ywee000t8&-800t88",
"$$8888%%8888288$1<::1<<<<1:><<<<<<<<:<<<<<<<<<1eee000008$$88888$",
"&&&&&$ . &&&&&$2&::;<<<<<<;;:<<<<<<<;::<<<<<<<1$$-0000t8&$$&&&$&",
"-------  .-----&2:;1<<<<<<11;:<<<<111;;:<<<<<<1$&-0000t8$$------",
"00000t-% ##*00-8@;1<<<<<<<<11;:<<1<<<11;:<<<<<18&-0000t8$--00000",
"000000t8 #**O*t32;;;<<<<;;;<<;:<<<<<<<<1;:<<<<13&-0000t8&-000000",
"000000t8$#**O++%@:;o;;;;ooo;;:<<<<<<<<<<1;:<<<18&-0000t8&-000000",
"000000t8$-*****%X::o:::::o:::<<q<<oo<<<<1;:<<<18$-000tt8&-000000",
"tt0t0t88$-2***=%Xq<<<<<<<<<<<<<qqoooo<<<1;:<<<18&-800t88$-80tttt",
"8t88888$$-02*+*%5q<<<<<<<<<<<<<5qooooo<<1::<<<18$$88888$&&888888",
"&&&&$$$$$-023*=%5qo<<<<<<<<<<<<o5qoooo<<<:<<<:732&&$$$$$&&&&$&&$",
"&&-----$$-20**=%5ooo<<<<<<<<<<oo5qoooo<<<<<<<:t82$-------------$",
"&--000--$-00**=% 5ooot<<tt<<ttoo5qooo<<<<<<<::222--000y0000000-8",
"&-000008$-00**=%X5ooottt5ottt5o5qqoo<<<<<<<<:028$-000yyy00002208",
"$-0000t8$-000*=%X#5ooqqqooqqqoo5qqo<<<<<<<<<:0222-000ywy00020008",
"$-000008$-000t=%X#5oooq5oo5qoo5qqt<<<<<<<<<:02t8$-000ywy02020tt8",
"$-000008&-8ttt8% #%5oo5oooo5oo5qt<<<<<<<<<<:tt28$-80t0ytt02ttt88",
"&-0000t8$$88888$. %%ooooooooo5qt<<<<<<<<<<:8882&&$8888888828888$",
"&-0000t8&$$$$$$$$$. .oqooooqott<<<<<<<<<<:@@2$&&$&&&&&&$@@@@@$$&",
"&-0000t8&$---------###ttoottt<<<<<<<<<<<:@-------------@@@-----$",
"&-0000t8&--0000000000*#<<<<<<<<<<<<<<<<:@--00000000000-8@--000-8",
"&-0000t8$-000000000000t%<<<<<<<<<<<<<<:8@-00000000000008@-000008",
"$-0000t8&-00000000000068&<<<<<<<<<<<::08@-000000000000t8@-000008",
"$-000tt8&-00000000330668&-0:::::::::00t8$-000000000000t8@-000008",
"&-800t88&-80tttt92t03688$-0020t8&-8t0t88$-80t000ttt0tt88@-000008",
"&$88888$&$8888888228238$$-0000t8$$88888$&$8888888888888$@-000008",
"&&$&&$$$$$$$$$$$&$$$&&&&$-0000t8&&$$$$$&&&&$$&&&$$$&&&$$@-000028",
"$$-------------&&$-----$$-0000t8&$-------------$$&-----$@-020028",
"@--00000000000-8&--000-8&-0002t2&--00000000000-8&--000-8$-020308",
"@-000000000000r8$-000008&-0000t2&-000000000000t8&-0000t8$-033308",
"@-00000000000tt8$-000008&-000tt8&-000000000000t8$-0000t8$-000308",
"@-00000006330tt8$-0000t8$-000tt8$-000000000000t8$-0000t8$-000328",
"@-8tt003300ttt88$-0000t8&-8ttt88$-8tttttyt0t0t88$-0000t8$-800082",
"@@8888388888888$&-0000t8&$88888$$$88888yye88888$&-0000t8$$88888@",
"@@@@@@3$$&&&&&$&$-0000t8&&&&&&&$&&&&$$$yye$&&&&&&-0000t8$$@$@@@@"
};
