/* XPM */
static char *result[] = {
/* columns rows colors chars-per-pixel */
"64 64 34 1 ",
"  c #303233",
". c #373A3B",
"X c #234538",
"o c #2A3F46",
"O c #265641",
"+ c #266349",
"@ c #316F52",
"# c #444748",
"$ c #494949",
"% c #515557",
"& c #585858",
"* c #626465",
"= c #6B7275",
"- c gray45",
"; c #832000",
": c #B32B00",
"> c #B42B00",
", c #C42F00",
"< c #C52F00",
"1 c #ED3A02",
"2 c #359066",
"3 c #36AC75",
"4 c #DDB276",
"5 c #FFC97E",
"6 c #28DF89",
"7 c #8C8F90",
"8 c #AAADAB",
"9 c #AEAEAE",
"0 c #FCE0BA",
"q c #F889EC",
"w c #FFB4F7",
"e c #BBC4C7",
"r c #BFCACE",
"t c #FFCFFA",
/* pixels */
"--333--&&&-----$$-999997$$-------------ttw-----$$-999997&&------",
"999939-7&--999-7$-9999r7$--99999999999-7w--999-7&-9999r7&--99999",
"t9993997&-999997$-9999r7&-999999999999r7@-999997$-9999r7$-9999tt",
"ww9399r7&-999997$-9999r7&-999999993999r7@-9999r7&-9999r7$-999wwq",
"w69999r7&-9999r7&-9999r7&-999929399999r7@-9999r7&-999rr7$-9999ww",
"6rrr9r77&-9999r7&-79rr77&-99rr999rr9rr77@-999997$-79rr77&-99rrrr",
"7777777$&-9999r7&$75777$&&7777737333777@@-9999r7$477777$&&777777",
"$&&&&&&$$-9999r7$$&50&$$&&&&&$2$$&$&$&@@@-99999754&&$$$$$$$&&$$$",
"&&-----$$-999997$2-50---------2$$&-----@@-9999r754------------&$",
"$--999-7$-9999972--50999999996-2$--999-7$-9999r754-99993939999-7",
"$-999997$-9999r7@-950093339969r22-9996r7$-9999r55499933999999997",
"$-9999r7$ttt99r7@-955002922699r72-999967&-9999554499999999699997",
"$-999997$tqtw9r7@-995000999999r7@-999967559995554-99999999966rr7",
"@-9999r7$wqtw977@-7950000rrr111111111115005955554-79999rrrr63r77",
"@-9999r7$$www77@@@775500000<<<<<<<<<<;rr00r455544$7777777777337@",
"@-999997$$$$$$@@@@@@t50000000<<<<<<<<;;;rr;44554&$$$&$$&$&&&&@@@",
"@-999997$$----------w5000000000::<<<<::;;;:14444-------$&$-----@",
"@-999997$--9www999999w500000000r;:<<<<<:::<<144999ttt9-7&--999-7",
"@-999997$-9wqqtt999991<5000000r;;:<<<<1<<<1<14999ttqqw97$-999997",
"@-9999r7$-99ttt999991<<<50000r;;:<<<<<<111<<<19999www937&-999997",
"$-9999r7&-9999999991<<<<<500r;;:<<<<<<<<00<<<19999929237&-999997",
"&-79rr77&-79r9rrrrr1<<<<:;rr;;:<<<<<<<<0oo0<<<1rr9rr2277$-999997",
"&$77777$&$7777777t1<<<<<:;;;;:<<<<<1<<r0o00<<11w7777277$$t999997",
"&&$$&&&$&&$$&$&$wt1<<<<<<::::<<<1111<:;;;;;:<11w@@@22$$$ttw99997",
"$$-------------$w1<<<<<<<<<<<<<<<<<<<;<<<<<;<<1@@@-----$tqw999r7",
"$--99999999999-7w1<<<<<<<<<<<<<000<<<<<<<<<<<<01@--999-7tqw999r7",
"$-999999999999r7$1<<<<<<<<<<<<<0oo00<<<<<<<<<0o1@-999997$w9999r7",
"$-999999999999r7&1<<<<<<<<<<<:00o000<<<<<<<<<0o1@-999997$-9999r7",
"$-9999*9999992r7&1<<<<<<<<<<:;;;;;;r<<<1<<1<<r;1tt9999r7&-999rr7",
"$-7rrr==rr9r9227&1<<<<<<<<<<;<<<<<<;,<<1<<1<:;<1qww999r7&-799r77",
"$$7777%%7777277$&1<<<<<<<<<:<<<<<<<<>:1<<<<1::<1ww999997$$77777$",
"&&&&&$ . &&&&&$2&1<<<<<<<::;<<<<<<<:;;<<<<<<;::$$-9999r7&$$&&&$&",
"-------  .-----&21<<<<<<:;;111<<<<:;11<<<<<<1;:$&-9999r7$$------",
"99999r-% ##*99-7@1<<<<<:;11<<<1<<:;11<<<<<<<<1;7&-9999r7$--99999",
"999999r7 #**O*r321<<<<:;1<<<<<<<<:;<<;;;<<<<;;;3&-9999r7&-999999",
"999999r7$#**O++%@1<<<:;1<<<<<<<<<<:;;ooo;;;;o;:7&-9999r7&-999999",
"999999r7$-*****%X1<<<:;1<<<<oo<<0<<:::o:::::o::7$-999rr7&-999999",
"rr9r9r77$-2***=%X1<<<:;1<<<oooo00<<<<<<<<<<<<<07&-799r77$-79rrrr",
"7r77777$$-92*+*%X1<<<::1<<ooooo05<<<<<<<<<<<<<05$$77777$&&777777",
"&&&&$$$$$-923*=%XX:<<<:<<<oooo05o<<<<<<<<<<<<o052&&$$$$$&&&&$&&$",
"&&-----$$-29**=%XX:<<<<<<<oooo05oo<<<<<<<<<<ooo52$-------------$",
"&--999--$-99**=% #::<<<<<<<ooo05oorr<<rr<<rooo522--999t9999999-7",
"&-999997$-99**=%X#*:<<<<<<<<oo005o5rrro5rrrooo57$-999ttt99992297",
"$-9999r7$-999*=%X#*:<<<<<<<<<o005oo000oo000oo5222-999tqt99929997",
"$-999997$-999r=%X#**:<<<<<<<<<r005oo05oo50ooo5r7$-999tqt92929rr7",
"$-999997&-7rrr7% #%*:<<<<<<<<<<r05oo5oooo5oo5r27$-79r9trr92rrr77",
"&-9999r7$$77777$. %%%:<<<<<<<<<<r05ooooooooo772&&$7777777727777$",
"&-9999r7&$$$$$$$$$. ..:<<<<<<<<<<rro0oooo0o@2$&&$&&&&&&$@@@@@$$&",
"&-9999r7&$---------####:<<<<<<<<<<<rrroorr-------------@@@-----$",
"&-9999r7&--9999999999*#%:<<<<<<<<<<<<<<<<--99999999999-7@--999-7",
"&-9999r7$-999999999999r%.:<<<<<<<<<<<<<<@-99999999999997@-999997",
"$-9999r7&-99999999999967&-::<<<<<<<<<<<7@-999999999999r7@-999997",
"$-999rr7&-99999999339667&-99:::::::::9r7$-999999999999r7@-999997",
"&-799r77&-79rrrr82r93677$-9929r7&-7r9r77$-79r999rrr9rr77@-999997",
"&$77777$&$7777777227237$$-9999r7$$77777$&$7777777777777$@-999997",
"&&$&&$$$$$$$$$$$&$$$&&&&$-9999r7&&$$$$$&&&&$$&&&$$$&&&$$@-999927",
"$$-------------&&$-----$$-9999r7&$-------------$$&-----$@-929927",
"@--99999999999-7&--999-7&-9992r2&--99999999999-7&--999-7$-929397",
"@-999999999999e7$-999997&-9999r2&-999999999999r7&-9999r7$-933397",
"@-99999999999rr7$-999997&-999rr7&-999999999999r7$-9999r7$-999397",
"@-99999996339rr7$-9999r7$-999rr7$-999999999999r7$-9999r7$-999327",
"@-7rr993399rrr77$-9999r7&-7rrr77$-7rrrrrtr9r9r77$-9999r7$-799972",
"@@7777377777777$&-9999r7&$77777$$$77777ttw77777$&-9999r7$$77777@",
"@@@@@@3$$&&&&&$&$-9999r7&&&&&&&$&&&&$$$ttw$&&&&&&-9999r7$$@$@@@@"
};
