/* XPM */
static char *result[] = {
/* columns rows colors chars-per-pixel */
"64 64 31 1 ",
"  c #303233",
". c #373A3B",
"X c #234538",
"o c #265641",
"O c #266349",
"+ c #316F52",
"@ c #444748",
"# c #494949",
"$ c #515557",
"% c #585858",
"& c #626465",
"* c #6B7275",
"= c gray45",
"- c #B32B00",
"; c #C12E00",
": c #C52F00",
"> c #ED3A02",
", c #359066",
"< c #36AC75",
"1 c #FFC97E",
"2 c #28DF89",
"3 c #29DF89",
"4 c #8C8F90",
"5 c #AAADAB",
"6 c #AEAEAE",
"7 c #FCE0BA",
"8 c #F889EC",
"9 c #FFB4F7",
"0 c #BBC4C7",
"q c #BFCACE",
"w c #FFCFFA",
/* pixels */
"==<<<==%%%=====##=666664##=============ww9=====##=666664%%======",
"6666<6=4%==666=4#=6666q4#==66666666666=49==666=4%=6666q4%==66666",
"w666<664%=666664#=6666q4%=666666666666q4+=666664#=6666q4#=6666ww",
"996<66q4%=666664#=6666q4%=66666666<666q4+=6666q4%=6666q4#=666998",
"926666q4%=6666q4%=6666q4%=6666,6<66666q4+=6666q4%=166qq4#=666699",
"2qqq6q44%=6661q4%=46qq44%=66qq666qq6qq44+=666664#=16qq44%=66qqqq",
"4444444#%=666174%#44444#%%44444<4<<<444++=6666q4#714444#%%444444",
"#%%%%%%##=666174##%%%%##%%%%%#,##%#%#%+++=666664%71%#######%%###",
"%%=====##=666174#,=,==========,##%=====++=6666q4#71===========%#",
"#==666=4#=666177,==6,666666662=,#==666=4#=6666q47716666<6<6666=4",
"#=666664#=6661177=66,,6<<<6626q,,=6662q4#=6666q771166<<666666664",
"#=6666q4#www6617776666<,6,,266q4,=666624%=6666777166666666266664",
"#=666664#w8w9617777666,6666666q11=666624#=6667777166666666622qq4",
"+=6666q4#98w961177777wqqqq>>>>>>>>>>>>34#=4777771146666qqqq2<q44",
"+=6666q4##99944177777774>>::::::::::::>>%77777771#4444444444<<4+",
"+=666664######+17777777>::::::::::::::::>77777771###%##%#%%%%+++",
"+=666664##======177777>::::::::::::::::::>777771=======#%#=====+",
"+=666664#==6999661777>::::::::::::::;:::::>7771666www6=4%==666=4",
"+=666664#=6988ww6617>::::::::::::::::::::::>71666ww88964#=666664",
"+=6666q4#=66www6666>::::::::::::::::::::::::>666669996<4%=666664",
"#=6666q4%=66666666>::::::::::::::::::::::::::>66666,6,<4%=666664",
"%=46qq44%=46q6qqqq>::::::::::::::::::::::::::>wqq6qq,,44#=666664",
"%#44444#%#4444444>::::::::::::::::::::::::::::>94444,44##w666664",
"%%##%%%#%%##%#%#9>::::::::::::::::::::::::::::>9+++,,###ww966664",
"##=============#9>::::::::::::::::::::::::::::>+++=====#w89666q4",
"#==66666666666=49>::::::::::::::::::::::::::::>4+==666=4w89666q4",
"#=666666666666q4#>::::::::::::::::::::::::::::>4+=666664#96666q4",
"#=666666666666q4%>::::::::::::::::::::::::::::>4+=666664#=6666q4",
"#=6666&666666,q4%>::::::::::::::::::::::::::::>www6666q4%=666qq4",
"#=4qqq**qq6q6,,4%>::::::::::::::::::::::::::::>w899666q4%=466q44",
"##4444$$4444,44#%>::::::::::::::::::::::::::::>999666664##44444#",
"%%%%%# . %%%%%#,%>::::::::::::::::::::::::::::>##=6666q4%##%%%#%",
"=======  .=====%,>::::::::::::::::::::::::::::>#%=6666q4##======",
"66666q=$ @@&66=4+>::::::::::::::::::::::::::::>4%=6666q4#==66666",
"666666q4 @&&o&q<,>::::::::::::::::::::::::::::><%=6666q4%=666666",
"666666q4#@&&oOO$>-::::::::::::::::::::::::::::->%=6666q4%=666666",
"666666q4#=&&&&&>--::::::::::::::::::::::::::::-->=666qq4%=666666",
"qq6q6q44#=,&&&*>--::::::::::::::::::::::::::::-->=466q44#=46qqqq",
"4q44444##=6,&O&>--::::::::::::::::::::::::::::-->#44444#%%444444",
"%%%%#####=6,<&*>--::::::::::::::::::::::::::::-->%%#####%%%%#%%#",
"%%=====##=,6&&*>---::::::::::::::::::::::::::--->#=============#",
"%==666==#=66&&*$----::::::::::::::::::::::::----,==666w6666666=4",
"%=666664#=66&&*$X----::::::::::::::::::::::----4#=666www6666,,64",
"#=6666q4#=666&*$X@----::::::::::::::::::::----,,,=666w8w666,6664",
"#=666664#=666q*$X@&----::::::::::::::::::----,q4#=666w8w6,6,6qq4",
"#=666664%=4qqq4$ @$-------::::::::::::-------q,4#=46q6wqq6,qqq44",
"%=6666q4##44444#. $$--------::::::::--------44,%%#44444444,4444#",
"%=6666q4%#########. .----------::----------+,#%%#%%%%%%#+++++##%",
"%=6666q4%#=========@@@--------------------=============+++=====#",
"%=6666q4%==6666666666&@------------------==66666666666=4+==666=4",
"%=6666q4#=666666666666q$----------------+=66666666666664+=666664",
"#=6666q4%=66666666666624%--------------4+=666666666666q4+=666664",
"#=666qq4%=66666666<<6224%=6----------6q4#=666666666666q4+=666664",
"%=466q44%=46qqqq5,q6<244#=66,6q4%=4q6q44#=46q666qqq6qq44+=666664",
"%#44444#%#4444444,,4,<4##=6666q4##44444#%#4444444444444#+=666664",
"%%#%%###########%###%%%%#=6666q4%%#####%%%%##%%%###%%%##+=6666,4",
"##=============%%#=====##=6666q4%#=============##%=====#+=6,66,4",
"+==66666666666=4%==666=4%=666,q,%==66666666666=4%==666=4#=6,6<64",
"+=66666666666604#=666664%=6666q,%=666666666666q4%=6666q4#=6<<<64",
"+=66666666666qq4#=666664%=666qq4%=666666666666q4#=6666q4#=666<64",
"+=66666662<<6qq4#=6666q4#=666qq4#=666666666666q4#=6666q4#=666<,4",
"+=4qq66<<66qqq44#=6666q4%=4qqq44#=4qqqqqwq6q6q44#=6666q4#=46664,",
"++4444<44444444#%=6666q4%#44444###44444ww944444#%=6666q4##44444+",
"++++++<##%%%%%#%#=6666q4%%%%%%%#%%%%###ww9#%%%%%%=6666q4##+#++++"
};
