/* XPM */
static char *result[] = {
/* columns rows colors chars-per-pixel */
"64 64 102 2 ",
"   c #161B1D",
".  c #1A1F21",
"X  c #2F3233",
"o  c #37393A",
"O  c #234537",
"+  c #2A3F46",
"@  c #49374F",
"#  c #4E3C54",
"$  c #5E3F67",
"%  c #255541",
"&  c #266349",
"*  c #316F52",
"=  c #444748",
"-  c #494949",
";  c #424D58",
":  c #56445C",
">  c #59465D",
",  c #515556",
"<  c #585858",
"1  c #5E4D65",
"2  c #574B6A",
"3  c #585570",
"4  c #634F67",
"5  c #64436C",
"6  c #604A68",
"7  c #69576F",
"8  c #6C4C75",
"9  c #6F4D75",
"0  c #6E5775",
"q  c #715876",
"w  c #74557D",
"e  c #79577F",
"r  c #5A6070",
"t  c #4C7370",
"y  c #626465",
"u  c #60667B",
"i  c #6E6079",
"p  c #746078",
"a  c #76607E",
"s  c #7B617A",
"d  c #7A627F",
"f  c #6A7275",
"g  c #61707B",
"h  c gray45",
"j  c #A22700",
"k  c #C52F00",
"l  c #ED3A02",
"z  c #80667F",
"x  c #359066",
"c  c #36AC75",
"v  c #FF8A65",
"b  c #7F5F87",
"n  c #627B88",
"m  c #747883",
"M  c #816987",
"N  c #836C89",
"B  c #886F88",
"V  c #84728A",
"C  c #8B7088",
"Z  c #846791",
"A  c #8A6890",
"S  c #867291",
"D  c #8B7390",
"F  c #907891",
"G  c #957A92",
"H  c #9A7AA2",
"J  c #4E8A86",
"K  c #65828B",
"L  c #648588",
"P  c #7F878A",
"I  c #7C888E",
"U  c #75939D",
"Y  c #7F9D9B",
"T  c #44A586",
"R  c #58AF9E",
"E  c #7A9CA7",
"W  c #7F9DA6",
"Q  c #28DF89",
"!  c #29DF89",
"~  c #8C8F90",
"^  c #9B819A",
"/  c #99869D",
"(  c #9B85A3",
")  c #A68BA3",
"_  c #AF8EB5",
"`  c #A498B2",
"'  c #B199B6",
"]  c #B69DB6",
"[  c #8FAFB9",
"{  c #AEAEAE",
"}  c #FFAF95",
"|  c #FCE0BA",
" . c #BA9FCA",
".. c #BCAACA",
"X. c #CCB0C9",
"o. c #F889EC",
"O. c #FFB4F7",
"+. c #A5C2CC",
"@. c #BFCACE",
"#. c #B0D4E0",
"$. c #D6C2DD",
"%. c #FFCFFA",
/* pixels */
"h h c c c h h < < < h h h h h - - h { { { { { ~ - - h h h h h h h h h h h h h %.%.O.h h h h h - - h { { { { { ~ < < h h h h h h ",
"{ { { { c { h ~ < h h { { { h ~ - h { { { { @.~ - h h { { { { { { { { { { { h ~ O.h h { { { h ~ < h { { { { @.~ < h h { { { { { ",
"%.{ { { c { { ~ < h { { { { { ~ - h { { { { @.~ < h { { { { { { { { { { { { @.~ * h { { { { { ~ - h { { { { @.~ - h { { { { %.%.",
"O.O.{ c { { @.~ < h { { { { { ~ - h { { { { @.~ < h { { { { { { { { c { { { @.~ * h { { { { @.~ < h { { { { @.~ - h { { { O.O.o.",
"O.Q { { { { @.~ < h { { { { @.~ < h { { { { @.~ < h { { { { x { c { { { { { @.~ * h { { { { @.~ < h { { { @.@.~ - h { { { { O.O.",
"Q @.@.+ + + + + + h { { { { @.~ < h ~ { @.@.~ ~ < h { { @.@.{ { { @.@.{ @.@.~ ~ * h { { { { { ~ - h ~ { @.@.~ + + + + + + @.@.@.",
"~ ~ ~ ~ + + + + + + + + + + + + + + + ~ ~ ~ ~ - < < ~ ~ ~ ~ ~ c ~ c c c ~ ~ ~ * * h { { { { + + + + + + + + + + + + + + ~ ~ ~ ~ ",
"- < < < < <                       + + + + + + + + + + + + + + + + + + + + + + + + + + + + + + +                     - < < - - - ",
"< < h h h h h                                                                                                     h h h h h < - ",
"- h h { { { h ~ - v l l l j j j j j j j j                                               j j j j j j j l l l v c { c { { { { h ~ ",
"- h { { { { { ~ - h { { v l l l k k k j j j j j j j j j j j j j j j j j j j j j j j j j j j k k l l v v { c c { { { { { { { { ~ ",
"- h { { { { @.~ - h { { { { @.v v l l k k k k k k k k k k k k k k k k k k k k k k k k k k l l l v h { { { { { { { { Q { { { { ~ ",
"- h { { { { { ~ - h { { { { @.~ * h { v l l k j { { { { { l j j j j l { { { Q ~ j k l l v { @.~ < h { { { { { { { { { Q Q @.@.~ ",
"* h { { { { @.~ - h ~ { { { ~ ~ * h ~ v l l k j @.@.@.@.@.l j j j j l { { { ! ~ j k l l v @.~ ~ < h ~ { { { { @.@.@.@.Q c @.~ ~ ",
"* h { { { { @.~ - - ~ ~ ~ ~ ~ * * * ~ | l l k j ~ ~ ~ ~ l l l j j l l l { { { ~ j k l l } ~ ~ - < - ~ ~ ~ ~ ~ ~ ~ ~ ~ ~ c c ~ * ",
"* h { { { { { ~ - - - - - } v v v } | o.O.l k j l v v v v v v v v v v v v } v v j k l l } l } } v v v - < - - < - < < < < * * * ",
"* h { { { { { ~ - - h h h l l l l l j O.c l k j l l l l l l l l l l l l l l l l j k l l v j l l l l l h h h h - < - h h h h h * ",
"* h { { { { { ~ - h h { { k k k k j j v l c k j k k k k k k k k k k k k k k k k j k l l v j j k k k k { { { h ~ < h h { { { h ~ ",
"* h { { { { { ~ - h { { { j j j j j j v l k c j j j j j j j j j j j j j j j j j j k k l } j j j j j j { { { { ~ - h { { { { { ~ ",
"* h { { { { @.~ - h { { { j j j j j j v l k k x j j j j j j j j j j j j j j j j j k k l v j j j j j j { { { c ~ < h { { { { { ~ ",
"- h { { { { @.~ < h { { { { { { { { { v l k k x G ) X.X.X.X...( q D X.' X.$.$.] j k k l v { { { { { { x { x c ~ < h { { { { { ~ ",
"< h ~ { @.@.~ ~ < h ~ { @.{ @.@.@.@.@.v l k k j G ) X.' ' ' ' ( q D ( _ ....( ] j k k l v { { @.@.{ @.@.x x ~ ~ - h { { { { { ~ ",
"< - ~ ~ ~ ~ ~ - < - ~ ~ ~ ~ ~ ~ ~ ~ ~ v l k k j C ) ' ' ' ' L ( d 9 H H ( ( ( q | k k l } ~ ~ ~ ~ ~ ~ ~ x ~ ~ - - h { { { { { ~ ",
"< < - - < < < - < < - - < - < - - - v v l k k j G D L ' ' ' L H e e e K q q q O.o.| k l v } x x * * * x x - - - - h { { { { { ~ ",
"- - h h h h h h h h h h h h h - - - x l l k | j C D ' n _ n  .H e 9 W W W D D D O.k c l v v h * * * h h h h h - - h { { { { @.~ ",
"- h h { { { { { { { { { { { h ~ - h v Q c | o.O.q D ' R _ n _ H e A A +._ ' ' ' j k k c l v h ~ * h h { { { h ~ - h { { { { @.~ ",
"- h { { { { { { { { { { { { @.~ - h } l c k O.j d D +.R R _  .H e A _ _ _ _ ' ' j k k l x v { ~ * h { { { { { ~ - h { { { { @.~ ",
"- h { { { { { { { { { { { { @.~ < h } l x x k j G D ' +._ n  .H e A _ _ _ _ _ ' j k k l l Q @.~ * h { { { { { ~ - h { { { { @.~ ",
"- h { { { { { { { { { { { x @.~ < h v l l Q x j G D ' _ _ _  .H 4 p _ _ _ n n X.j k k l l } Q ~ < h { { { { @.~ < h { { { @.@.~ ",
"- h ~ @.@.@.@.@.@.@.{ @.{ x x ~ < h v l l k x x G D H _  .n H H 9 A H _  .n n X.j j k l l v Q ~ < h { { { { @.~ < h ~ { { @.~ ~ ",
"- - ~ ~ ~ ~ ~ ~ ~ ~ ~ ~ x ~ ~ - < h v l l k j x d q H H n H V > 4 > V H H H H Y Q j k l l v ~ < < h { { { { { ~ - - ~ ~ ~ ~ ~ - ",
"< < < < < - - < - < < < < < - x < h v l l k j ] q e 9 n 9 9 > 9 4 e 9 9 9 e e e Q j k | l v < - - h { { { { @.~ < - - < < < - < ",
"h h h h h h h - - < h h h h h < x h } l k k j ] q 9 n A A A p p p p p A A A A e G Q | o.O.v h - < h { { { { @.~ - - h h h h h h ",
"{ { { { { @.h ~ - h h { { { h ~ * h c | k k j ] L A A _ _ / _ / / _ _ _ _  .A H G j x O.l } h ~ < h { { { { @.~ - h h { { { { { ",
"{ { { { { { @.~ - h { { x { @.c x h | o.O.k j ( g A _ _ / _ _ / _ _ / _ _  . .H G j k c l } c c < h { { { { @.~ < h { { { { { { ",
"{ { { { { { @.~ - h { { x c c ~ * } v O.Q c j ] g A _ _ / / / / _ / / _ _ _ #.( G j k k x v v ~ < h { { { { @.~ < h { { { { { { ",
"{ { { { { { @.~ - h { { { { { ~ * } l l k c c ] g A _ _ / / / / _ t / _ _ +.#.[ d j k k l x Q ~ - h { { { @.@.~ < h { { { { { { ",
"@.@.{ @.{ @.~ ~ - h x { { { @.~ * v l l k k x c g A H _  .` t T n / ` `  ._ [ H C j k k l l Q Q < h ~ { { @.~ ~ - h ~ { @.@.@.@.",
", f , , , , , X - h { x { c { ~ * v l l k k c * u u H H w ; 1 1 1 V V V H H H e C j k k l l v Q - - ~ ~ ~ ~ ~ - < < ~ ~ ~ ~ ~ ~ ",
"< o o o X X X X X = y % & y f , O v l l k k j m r 2 2 2 ; ; ; $ 4 4 4 > e e e e G j k k l l v c x < < - - - - - < < < < - < < - ",
"< < = = = = = X X = % y y y f , O } l l k k j B 0 8 8 : 3 : : > 4 > A p A A A d C j k k l l } ~ x - h h h h h h h h h h h h h - ",
"< h h { { y = = X = y y y y f , Q v l l k k j ^ M b b b 3 ; A V > p p / _ _ A ( C j k k l l v x x h h { { { { { { { { { { { h ~ ",
"< h { { { { { , X = y y y y f , Q Q l l k k j ^ M b b b b 3 3 V > p / / _ _ _ ( Q j k k l l } ~ - h { { { { { { { { { { x x { ~ ",
"- h { { { { @., X = y y y { @.~ * Q Q l k k j X.' b b U ; 7 Z 1 > p / / _ _  .H Q j k k l l } x x h { { { { { { { { { x { { { ~ ",
"- h { { { { { ~ X = y y y f f , O } l Q k O.j ^ M b J U U b i 1 @ : _ / _ _  .H g Q k | l l v ~ - h { { { { { { { x { x { @.@.~ ",
"- h { { { { { , o = , f f f , , X v l l | o.O.S S S Z E i 7 w 1 # : _ _ _ _  .H g j | o.O.l v ~ - h ~ { @.{ { @.@.{ x @.@.@.~ ~ ",
"< h { { { { @., X X , , , , , X o v l l k | j F a a w w w 1 1 5 # : _ _ _ _ _ H I j k O.c l v < < - ~ ~ ~ ~ ~ ~ ~ ~ x ~ ~ ~ ~ - ",
"< h { { { { @., o X X X X X X X - v l l k * x G d d 9 9 $ @ 5 @ 5 : b _ _ n _ n I j k k * c } < - < < < < < < - * * * * * - - < ",
"< h { { { { @.~ < - = = = = = = = v l l k k c c d d A A A 8 8 @ # : b b _ _ n ( g j k k l c c h h h h h h h h * * * h h h h h - ",
"< h { { { { @.~ < h = y y y y y y v l l k k j c d D D _ _ _ 8 1 5 8 b b b _  .( I j k k l l c c { { { { { { h ~ * h h { { { h ~ ",
"< h { { { { @.~ - h { y y y y y + P + +         d D ' ' _ _ _ w $ 8 b b b U M ]         + + P + { { { { { { { ~ * h { { { { { ~ ",
"- h { { { { @.~ < h { y y y y y + P + +         d D ' ' _ _  .H $ 8 b b U U U F         + + P + { { { { { { @.~ * h { { { { { ~ ",
"- h { { { @.@.~ < h { { y y y Q + P + +         G D ' ' _ _  .H e 8 b b b U S F         + + P + { { { { { { @.~ * h { { { { { ~ ",
"< h ~ { { @.~ ~ < h ~ { f f f Q + P + +         C D ' _ n _  .H e A w Z b S a F * *     + + P + @.@.@.{ @.@.~ ~ * h { { { { { ~ ",
"< - ~ ~ ~ ~ ~ - < - ~ ~ ~ , , , Q P + +         C D ' ' ' _  .H 9 9 H w a a a s     Q   + + P + ~ ~ ~ ~ ~ ~ ~ - * h { { { { { ~ ",
"< < - < < - - - - - - - - X X X * Q + +         C ) ' ' ' ' ..( d d q q 6 6 6 z       * + + P + - - - < < < - - * h { { { { x ~ ",
"- - h h h h h h h h h h h h = o + * +           - - X.X.X.' ..( d q D D D 0 B B         c + P + - < h h h h h - * h { x { { x ~ ",
"* h h { { { { { { { { { { - - + P + *             - h X.X.Y ..L d D D ' X.X.N             * Q Q + - - * - { h ~ - h { x { c { ~ ",
"* h { { { { { { { { { { - - + + + +   * x           - * * X.$.Y G - - X.c c   c       .     + * c + * * * { @.~ - h { c c c { ~ ",
"* h { { { { { { { { { { { - - + + c   * x Q       * * * h * $.] - ) - - - c c               + + * * * * * { @.~ - h { { { c { ~ ",
"* h { { { { { { { Q c c { @.- - - c c c * * c x * * c h h h h ] - - - - - - * * Q * - - - - - - - - - - { { @.~ - h { { { c x ~ ",
"* h ~ @.@.{ { c c { { @.@.@.~ ~ - - { - * * * * < - - c - h h - - - ~ @.@.- - - %.- * - - - - - - - { { { { @.~ - h ~ { { { ~ x ",
"* * ~ ~ ~ ~ c ~ ~ ~ ~ ~ ~ ~ ~ - < h { { { { * ~ < - - - - - ~ - - - ~ ~ ~ ~ ~ %.%.O.~ ~ ~ ~ ~ - < h { { { { @.~ - - ~ ~ ~ ~ ~ * ",
"* * * * * * c - - < < < < < - < - h { { { { @.~ < < < < < < < - < < < < - - - %.%.O.- < < < < < < h { { { { @.~ - - * - * * * * "
};
