/* XPM */
static char *result[] = {
/* columns rows colors chars-per-pixel */
"64 64 32 1 ",
"  c #161B1D",
". c #1A1F21",
"X c #2F3233",
"o c #37393A",
"O c #234537",
"+ c #2A3F46",
"@ c #255541",
"# c #266349",
"$ c #316F52",
"% c #444748",
"& c #494949",
"* c #515556",
"= c #585858",
"- c #626465",
"; c #6A7275",
": c gray45",
"> c #A22700",
", c #C52F00",
"< c #ED3A02",
"1 c #359066",
"2 c #36AC75",
"3 c #FF8A65",
"4 c #7F878A",
"5 c #28DF89",
"6 c #29DF89",
"7 c #8C8F90",
"8 c #AEAEAE",
"9 c #FFAF95",
"0 c #F889EC",
"q c #FFB4F7",
"w c #BFCACE",
"e c #FFCFFA",
/* pixels */
"::222::===:::::&&:888887&&:::::::::::::eeq:::::&&:888887==::::::",
"888828:7=::888:7&:8888w7&::88888888888:7q::888:7=:8888w7=::88888",
"e8882887=:888887&:8888w7=:888888888888w7$:888887&:8888w7&:8888ee",
"qq8288w7=:888887&:8888w7=:888888882888w7$:8888w7=:8888w7&:888qq0",
"q58888w7=:8888w7=:8888w7=:888818288888w7$:8888w7=:888ww7&:8888qq",
"5ww++++++:8888w7=:78ww77=:88ww888ww8ww77$:888887&:78ww7++++++www",
"7777+++++++++++++++7777&==7777727222777$$:8888++++++++++++++7777",
"&=====           +++++++++++++++++++++++++++++++          &==&&&",
"==:::::                                                  :::::=&",
"&::888:7&3<<<>>>>>>>>                       >>>>>>><<<32828888:7",
"&:888887&:883<<<,,,>>>>>>>>>>>>>>>>>>>>>>>>>>>,,<<33822888888887",
"&:8888w7&:8888w33<<,,,,,,,,,,,,,,,,,,,,,,,,,,<<<3:88888888588887",
"&:888887&:8888w7$:83<<,>88888<>>>><88857>,<<38w7=:88888888855ww7",
"$:8888w7&:788877$:73<<,>wwwww<>>>><88867>,<<3w77=:78888wwww52w77",
"$:8888w7&&77777$$$73<<,>7777<<<>><<<8887>,<<977&=&7777777777227$",
"$:888887&&&&&93339<3<<,><333333333333933>,<<9<99333&=&&=&====$$$",
"$:888887&&:::<<<<<>32<,><<<<<<<<<<<<<<<<>,<<3><<<<<::::&=&:::::$",
"$:888887&::88,,,,>>3<2,>,,,,,,,,,,,,,,,,>,<<3>>,,,,888:7=::888:7",
"$:888887&:888>>>>>>3<,2>>>>>>>>>>>>>>>>>>,,<9>>>>>>88887&:888887",
"$:8888w7&:888>>>>>>3<,,1>>>>>>>>>>>>>>>>>,,<3>>>>>>88827=:888887",
"&:8888w7=:8888888883<,,1=:8888w7&:888ww7>,,<388888818127=:888887",
"=:78ww77=:78w8wwwww3<,,>=:888887&:78ww77>,,<388ww8ww1177&:888887",
"=&77777&=&7777777773<,,>&:888817=&77777&>,,<97777777177&&:888887",
"==&&===&==&&=&=&&&33<,,>=:188817===&&&&=>,,<3911$$$11&&&&:888887",
"&&:::::::::::::&&&1<<,,>&:8181w7=&::::::>,2<33:$$$:::::&&:8888w7",
"&::88888888888:7&:352,,>&:818187=::88888>,,2<3:7$::888:7&:8888w7",
"&:888888888888w7&:9<2,,>=:8118w7=:888888>,,<1387$:888887&:8888w7",
"&:888888888888w7=:9<11,>=:8881w7=:888888>,,<<5w7$:888887&:8888w7",
"&:888888888881w7=:3<<51>=:8888w7=:888118>,,<<957=:8888w7=:888ww7",
"&:7wwwwwww8w8117=:3<<,11=:78w177&:78w118>>,<<357=:8888w7=:788w77",
"&&7777777777177&=:3<<,>1=&77177&=&7777715>,<<37==:888887&&77777&",
"=====&&=&=====&1=:3<<,>7&=&1&&&&==&&&===5>,<<3=&&:8888w7=&&===&=",
":::::::&&=:::::=1:9<,,>7&&1::::::::::::==5,,<3:&=:8888w7&&::::::",
"88888w:7&::888:7$:2<,,>71::8888888888w:7=>1,<9:7=:8888w7&::88888",
"888888w7&:8818w21:11,,>7$:88888888888ww7=>,2<922=:8888w7=:888888",
"888888w7&:881227$93$52>7$:888888888888w7=>,,1337=:8888w7=:888888",
"888888w7&:888887$9<<,227$:888888818888w7=>,,<157&:888ww7=:888888",
"ww8w8w77&:1888w7$3<<,,12$:78ww1518www877&>,,<<55=:788w77&:78wwww",
"*;*****X&:818287$3<<,,2$$$77*@***777777=&>,,<<35&&77777&==777777",
"=oooXXXXX%-@#-;*O3<<,,>@@OOO@@@X===&=====>,,<<321==&&&&&====&==&",
"==%%%%%XX%@---;*O9<<,,>%%%%%@%%&=&:::::=&>,,<<971&:::::::::::::&",
"=::88-%%X%----;*53<<,,>-----@@:7&::888:7&>,,<<311::88888888888:7",
"=:88888*X%----;*55<<,,>------@@7&:8888875>,,<<97&:88888888881187",
"&:8888w*X%---8w7$55<,,>88---@-;*&:8888w75>,,<<911:88888888818887",
"&:888887X%---;;*O9<5,,>---@---;*X%8888w7$5,,<<37&:88888881818ww7",
"&:88888*o%*;;;**X3<<$,>;;;;;;-**o%8888w7$>$,<<37&:78w88ww81www77",
"=:8888w*XX*****Xo3<<,$>********oo%888887$>,22<3==&7777777717777&",
"=:8888w*oXXXXXXX&3<<,$1===&&XXoXo%-88181$>,,$29=&======&$$$$$&&=",
"=:8888w7=&%%%%%%%3<<,,22==:::%%Xo%--8817$>,,<22::::::::$$$:::::&",
"=:8888w7=:%------3<<,,>2=::888%*o%---8w7$>,,<<22888888:7$::888:7",
"=:8888w7&:8-----+4++    =:88888*X%-----7    ++4+88888887$:888887",
"&:8888w7=:8-----+4++    =:8888w7X%-----*    ++4+888888w7$:888887",
"&:888ww7=:88---5+4++    =:8888w7=%----;*    ++4+888888w7$:888887",
"=:788w77=:78;;;5+4++    &:8818w7=:*;-;**$$  ++4+www8ww77$:888887",
"=&77777&=&777***54++    &:8888w7&&7****X  5 ++4+7777777&$:888887",
"==&==&&&&&&&&XXX$5++    &:8888w7==&&XXXo   $++4+&&&===&&$:888817",
"&&::::::::::::%o+$+     &&8888w7=&:::%%%    2+4+&=:::::&$:818817",
"$::8888888888&&+4+$      &:881w1=::888-      $55+&&$&8:7&:818287",
"$:8888888888&&++++ $1     &$$8w1=&&822 2   .  +$2+$$$8w7&:822287",
"$:88888888888&&++2 $15   $$$:$w7&:&&&22       ++$$$$$8w7&:888287",
"$:88888885228w&&&222$$21$$2::::7&&&&&&$$5$&&&&&&&&&&88w7&:888217",
"$:7ww882288www77&&8&$$$$=&&2&::&&&7ww&&&e&$&&&&&&&8888w7&:788871",
"$$7777277777777&=:8888$7=&&&&&7&&&77777eeq77777&=:8888w7&&77777$",
"$$$$$$2&&=====&=&:8888w7=======&====&&&eeq&======:8888w7&&$&$$$$"
};
