/* XPM */
static char *result[] = {
/* columns rows colors chars-per-pixel */
"64 64 16 1 ",
"  c #316F52",
". c #494949",
"X c #585858",
"o c gray45",
"O c #359066",
"+ c #36AC75",
"@ c #28DF89",
"# c #29DF89",
"$ c #8C8F90",
"% c #AAADAB",
"& c #AEAEAE",
"* c #F889EC",
"= c #FFB4F7",
"- c #BBC4C7",
"; c #BFCACE",
": c #FFCFFA",
/* pixels */
"oo+++ooXXXooooo..o&&&&&$..ooooooooooooo::=ooooo..o&&&&&$XXoooooo",
"&&&&+&o$Xoo&&&o$.o&&&&;$.oo&&&&&&&&&&&o$=oo&&&o$Xo&&&&;$Xoo&&&&&",
":&&&+&&$Xo&&&&&$.o&&&&;$Xo&&&&&&&&&&&&;$ o&&&&&$.o&&&&;$.o&&&&::",
"==&+&&;$Xo&&&&&$.o&&&&;$Xo&&&&&&&&+&&&;$ o&&&&;$Xo&&&&;$.o&&&==*",
"=@&&&&;$Xo&&&&;$Xo&&&&;$Xo&&&&O&+&&&&&;$ o&&&&;$Xo&&&;;$.o&&&&==",
"@;;;&;$$Xo&&&&;$Xo$&;;$$Xo&&;;&&&;;&;;$$ o&&&&&$.o$&;;$$Xo&&;;;;",
"$$$$$$$.Xo&&&&;$X.$$$$$.XX$$$$$+$+++$$$  o&&&&;$..$$$$$.XX$$$$$$",
".XXXXXX..o&&&&;$..XXXX..XXXXX.O..X.X.X   o&&&&&$X.XX.......XX...",
"XXooooo..o&&&&&$.OoOooooooooooO..Xooooo  o&&&&;$..ooooooooooooX.",
".oo&&&o$.o&&&&&$Ooo&O&&&&&&&&@oO.oo&&&o$.o&&&&;$Xoo&&&&+&+&&&&o$",
".o&&&&&$.o&&&&;$ o&&OO&+++&&@&;OOo&&&@;$.o&&&&;$Xo&&&++&&&&&&&&$",
".o&&&&;$.:::&&;$ o&&&&+O&OO@&&;$Oo&&&&@$Xo&&&&;$.o&&&&&&&&@&&&&$",
".o&&&&&$.:*:=&;$ o&&&&O&&&&&&&;$ o&&&&@$.o&&&&;$Xo&&&&&&&&&@@;;$",
" o&&&&;$.=*:=&$$ o$&;:;;;;;;;;$$ o&&&&#$.o$&;;$$Xo$&&&&;;;;@+;$$",
" o&&&&;$..===$$   $$::=$$$$$$$$  O&&&&&$X.$$$$$.X.$$$$$$$$$$++$ ",
" o&&&&&$......      ::=.XXX..    OO&&+;$X..XXX..X...X..X.XXXX   ",
" o&&&&&$..oooooooooo=*=.X.ooooo  O&O+&;$X.ooooooooooooo.X.ooooo ",
" o&&&&&$.oo&===&&&&&&=o$Xoo&&&o$ o&&+&;$Xoo&&&&&&&:::&o$Xoo&&&o$",
" o&&&&&$.o&=**::&&&&&&&$Xo&&&&&$ o&&&&;$Xo&&&&&&&::**=&$.o&&&&&$",
" o&&&&;$.o&&:::&&&&&&&;$Xo&&&&;$ o&&&;;$Xo&&&&&&&&===&+$Xo&&&&&$",
".o&&&&;$Xo&&&&&&&&&&&&;$Xo&&&&;$.o&&&;;$Xo&&&&&&&&&O&O+$Xo&&&&&$",
"Xo$&;;$$Xo$&;&;;;;;;;&$$Xo&&&&&$.o$&;;$$Xo$&&::;;&;;OO$$.o&&&&&$",
"X.$$$$$.X.$$$$$$$:$$$$$..o&&&&O$X.$$$$$.X.$$$=:=$$$$O$$..:&&&&&$",
"XX..XXX.XX..X.X.=::....XXoO&&&O$XXX....XX.OO  ==   OO...::=&&&&$",
"..ooooooooooooo.=*:oooo..o&O&O;$X.oooooooOOoooo   ooooo.:*=&&&;$",
".oo&&&&&&&&&&&o$==:&&&o$.o&O&O&$Xoo&&:::&O&&&&o$ oo&&&o$:*=&&&;$",
".o&&&&&&&&&&&&;$.=&&&&;$Xo&OO&;$Xo&&&=*:=&&&&&&$ o&&&&&$.=&&&&;$",
".o&&&&&&&&&&&&;$Xo&&&&;$Xo&&&O;$Xo&&&&===O&&&&;$ o&&&&&$.o&&&&;$",
".o&&&&&&&&&&&O;$Xo&&&&&$Xo&&&&;$Xo&&&OO&&&O&&;;:::&&&&;$Xo&&&;;$",
".o$;;;;;;;&;&OO$Xo&&&&;$Xo$&;O$$.o$&;OO&;;;;;;::*==&&&;$Xo$&&;$$",
"..$$$$$$$$$$O$$.Xo&&&&;$X.$$O$$.X.$$$$$O$$$$$$$===&&&&&$..$$$$$.",
"XXXXX..X.XXXXX.OXo&&&&&$.X.O....XX...XXX...XXXX..o&&&&;$X..XXX.X",
"ooooooo..XoooooXOo&&&&;$..OooooooooooooXX.ooooo.Xo&&&&;$..oooooo",
"&&&&&;o$.oo&&&o$ o&&&&;$Ooo&&&&&&&&&&;o$Xoo&&&o$Xo&&&&;$.oo&&&&&",
"&&&&&&;$.o&&O&;+Oo&&&&;$ o&&&&&&&&&&&;;$Xo&&+&++Xo&&&&;$Xo&&&&&&",
"&&&&&&;$.o&&O++$ o&&&;;$ o&&&&&&&&&&&&;$Xo&&&+;$Xo&&&&;$Xo&&&&&&",
"&&&&&&;$.o&&&&&$ o&&&;;$ o&&&&&&&O&&&&;$Xo&&&+&$.o&&&;;$Xo&&&&&&",
";;&;&;$$.oO&&&;$ o$;;;$$ o$&;;O@O&;;;&$$.o&&&&;$Xo$&&;$$.o$&;;;;",
"$;$$$$$..o&O&+&$  $$$$$   $$$O$$$$$$$$$X.o&&&&;$..$$$$$.XX$$$$$$",
"XXXX.....o&O+&;$  . . :::   OOO.XXX.XXXXXoO&+&#+OXX.....XXXX.XX.",
"XXooooo..oO&&&;$  ooo=**==ooOoo.X.oooooX.oO&O&;$O.ooooooooooooo.",
"Xoo&&&oo.o&&&&;$.oo&&&===&&&OOo$.oo&&&o$.oOOO&OOOoo&&&:&&&&&&&o$",
"Xo&&&&&$.o&&&&;$ o&&&&&&&&&&&OO$.o&&&&&$ o&&O&O$.o&&&:::&&&&OO&$",
".o&&&&;$.o&&&&;$ o&&&&&&&&&&O&;$.o&&&&;$ o&&O&OOOo&&&:*:&&&O&&&$",
".o&&&&&$.o&&&;;$ o&&&&&&&&O&&&;$.o&&&&;$ o&&&O;$.o&&&:*:&O&O&;;$",
".o&&&&&$Xo$;;;$$.o$&;;&;;;;;;&$$Xo&&&&;$ o$;;;O$.o$&;&:;;&O;;;$$",
"Xo&&&&;$..$$$$$.X.$$$$$$$$$$$$$XXo&&&&&$  $$$$OXX.$$$$$$$$O$$$$.",
"Xo&&&&;$X.........X.XXXXXX....X.Xo&&&O&O    O.XX.XXXXXX.     ..X",
"Xo&&&&;$X.ooooooooooooo.XXooooo.Xo&&&&O$  ooooooooooooo   ooooo.",
"Xo&&&&;$Xoo&&&&&&&&&&&o$Xoo&&&o$Xo&&&&;$ oo&&&&&&&&&&&o$ oo&&&o$",
"Xo&&&&;$.o&&&&&&&&&&&&;$Xo&&&&&$.o&&&&&$ o&&&&&&&&&&&&&$ o&&&&&$",
".o&&&&;$Xo&&&&&&&&&&&&@$Xo&&&&;$.o&&&&&$ o&&&&&&&&&&&&;$ o&&&&&$",
".o&&&;;$Xo&&&&&&&&++&@@$Xo&&&&;$Xo&&&&;$.o&&&&&&&&&&&&;$ o&&&&&$",
"Xo$&&;$$Xo$&;;;;%O;&+@$$.o&&O&;$Xo$;&;$$.o$&;&&&;;;&;;$$ o&&&&&$",
"X.$$$$$.X.$$$$$$$OO$O+$..o&&&&;$..$$$$$.X.$$$$$$$$$$$$$. o&&&&&$",
"XX.XX...........X...XXXX.o&&&&;$XX.....XXXX..XXX...XXX.. o&&&&O$",
"..oooooooooooooXX.ooooo..o&&&&;$X.ooooooooooooo..Xooooo. o&O&&O$",
" oo&&&&&&&&&&&o$Xoo&&&o$Xo&&&O;OXoo&&&&&&&&&&&o$Xoo&&&o$.o&O&+&$",
" o&&&&&&&&&&&&-$.o&&&&&$Xo&&&&;OXo&&&&&&&&&&&&;$Xo&&&&;$.o&+++&$",
" o&&&&&&&&&&&;;$.o&&&&&$Xo&&&;;$Xo&&&&&&&&&&&&;$.o&&&&;$.o&&&+&$",
" o&&&&&&&@++&;;$.o&&&&;$.o&&&;;$.o&&&&&&&&&&&&;$.o&&&&;$.o&&&+O$",
" o$;;&&++&&;;;$$.o&&&&;$Xo$;;;$$.o$;;;;;:;&;&;$$.o&&&&;$.o$&&&$O",
"  $$$$+$$$$$$$$.Xo&&&&;$X.$$$$$...$$$$$::=$$$$$.Xo&&&&;$..$$$$$ ",
"      +..XXXXX.X.o&&&&;$XXXXXXX.XXXX...::=.XXXXXXo&&&&;$.. .    "
};
