/* XPM */
static char *result[] = {
/* columns rows colors chars-per-pixel */
"64 64 43 1 ",
"  c #1C3B2C",
". c #282828",
"X c #2F2F2F",
"o c gray24",
"O c #2A3F46",
"+ c #316F52",
"@ c #176077",
"# c #444849",
"$ c #494949",
"% c #4A4B4C",
"& c #585858",
"* c #5B5B5B",
"= c #63696B",
"- c gray45",
"; c #C52F00",
": c #ED3A02",
"> c #FC470E",
", c #FF5E2C",
"< c #835E7F",
"1 c #E27F5F",
"2 c #359066",
"3 c #36AC75",
"4 c #FF8A65",
"5 c #836B81",
"6 c #2081A0",
"7 c #28DF89",
"8 c #29DF89",
"9 c #25A4CC",
"0 c #32C0ED",
"q c #8C8F90",
"w c #AAADAB",
"e c #AEAEAE",
"r c #FFAE94",
"t c #FFAF95",
"y c #E5C394",
"u c #FCE0BA",
"i c #F889EC",
"p c #FFB4F7",
"a c #BBC4C7",
"s c #BFCACE",
"d c #FEF1DE",
"f c #FFCFFA",
"g c #EFF3F4",
/* pixels */
"--333--&&&-----$$-eeeeeq$$-------------ffp-----$$-eeeeeq&&------",
"eeee3e-q&--eee-q$-eeeesq$--eeeeeeeeeee-qp--eee-q&-eeeesq&--eeeee",
"feee3eeq&-eeeeeq$-eeeesq&-eeeeeeeeeeeesq+-eeeeeq$-eeeesq$-eeeeff",
"ppe3eesq&-eeeeeq$-eeeesq&-eeeeeeee3eeesq+-eeeesq&-eeeesq$-eeeppi",
"p7eeeesq&-eeeesq&-eeeesq&-eeee2e3eeeeesq+-eeeesq&-eeessq$-eeeepp",
"7sssesqq&-eeeesq&-qessqq&-eesseeessessqq+-eeeeeq$-qessqq&-eessss",
"qqqqqqq$&-eeeesq&$qqqqq$&&qqqqq3q333qqq++-eeeesq$$qqqqq$&&qqqqqq",
"$&&&&&&$$-eeeesq$$,&t&$$&&&&&$2$$&$&$&+++-ete,eq&$&&$$$$$$$&&$$$",
"&&-----$$-eeeeeq$2-,t---------2$$&-----++-et,esq$$------------&$",
"$--eee-q$-eeeeeq2-,e,teeeeeee7-2$--eee-q$-t,e,sq&--eeee3e3eeee-q",
"$-eeeeeq$-eeeesq+-ee,4t333ee7es22-eee7sq$t4,eesq&-eee33eeeeeeeeq",
"$-eeeesq$fffeesq+-ee,44te227eesq2-eeee7qt44,eesq$-eeeeeeee7eeeeq",
"$-eeeeeq$fifpesq+-ee,444teeeeesq+-eeee7t444,eesq&-eeeeeeeee77ssq",
"+-eeeesq$pifpeqq+-qes,444tssssqq+-eeeet444,essqq&-qeeeessss73sqq",
"+-eeeesq$$pppqq+++qqf,4444tqqtttttteet4444,qqqq$&$qqqqqqqqqq33q+",
"+-eeeeeq$$$$$$++++++f,44444ttt4444ttt44444,&&&g$&$$$&$$&$&&&&+++",
"+-eeeeeq$$----------pi,444444441444444444,---udg-------$&$-----+",
"+-eeeeeq$--epppeeeeeep,444444444144444444,-eeudggefffe-q&--eee-q",
"+-eeeeeq$-epiiffeeeeeee,4444444144444444,-eeuuddgggiipeq$-eeeeeq",
"+-eeeesq$-eefffeeeeeees,4444444414444444,-eeuuudddggpe3q&-eeeeeq",
"$-eeeesq&-eeeeeeeeeeees,4444444144444444,-eeuuuudddgg23q&-eeeeeq",
"&-qessqq&-qesessssssseq,4444444414444444,-qeeuuuudddggqq$-eeeeeq",
"&$qqqqq$&$qqqqqqqfqqqq,444444441114444444,qqquuuuudddgg$$feeeeeq",
"&&$$&&&$&&$$&$&$pff$$$,444444411111444444,22++uuuOOOOdg$ffpeeeeq",
"$$-------------$>>f---y444444111111444444y2---uuOOOOOOg$fipeeesq",
"$--eeeeeeeeeee->>>>eeey444444111111144444yeeeeuOOO###OOqfipeeesq",
"$-eeeeeeeeee>>>>>>>>eeu444441111111114444ueeeOOO###4##Oq$peeeesq",
"$-eeeeeeeeeee>>>&->>>ed444441111111114444deeeO###4#44##q$-eeeesq",
"$-eeeeeeeeeee2sq&-e>>>ed444,,,,,,,,,,444de2e##ttt444,,,q&-eeessq",
"$-qsssssssese22q&-eee>>,,,,,,,,,,,,,,,,44ssstttt4444,,sq&-qeesqq",
"$$qqqqqqqqqq2qq$&-e;;;;>,,,>>>>>>>>>>,,,>qqtttt4444,,,eq$$qqqqq$",
"&&&&&$$&$&&&&&$2&;;;;ee>,>>>@@@@@@@@>>>,>$$ttt4444,,,esq&$$&&&$&",
"-------$$&-----&;;;eees>>>@@@@00000@@@>>>$ttt4444,,,eesq$$------",
"eeeees-q$--eee-;;-eeees>@@@0009999000@@@>ttt4444,,,eeesq$--eeeee",
"eeeeeesq$-ee2es32-eeees69990099999900999tttt444,,,eeeesq&-eeeeee",
"eeeeeesq$-ee233q+-eees69999009999990099tttt444,,,-eeeesq&-eeeeee",
"eeeeeesq$-eeeeeq+-eee69999900999999009tttt444,,,$-eeessq&-eeeeee",
"ssesesqq$-2eeesq+-qss6996990099999900tttt444,,,q&-qeesqq$-qessss",
"qsqqqqq$$-e2e3*% +qqq699669009999990ttt4444,,esq$$qqqqq$&&qqqqqq",
"&&&&$$$$$-e23es%  .+.69956900999999trt4444,,3e832&&$$$$$&&&&$&&$",
"&&-----$$-2e**sq  ooo699<690099999tt4444,,,e2esq2$-------------$",
"&--eee--.-****=q$oo**644p69009999tt444,,,4622e222--eeefeeeeeee-q",
"&-eeeeeq$o*eees% -***,4te6900099tt444,,qt4,e2e2q$-eeefffeeee22eq",
"$-eeeesq$-eeee=% o***,4*e9;;;;;tt44,,,9q+4,e2e222-eeefifeee2eeeq",
"$-eeeeeq$-ee*==q o*******;>>>>,444,,>>;q+-eee2sq$-eeefife2e2essq",
"$-eeeeeq&-q==sqq$-%*==*==:>>>>>44,,>>>:q+-qsss2q$-qesefsse2sssqq",
"&-eeeesq$$qqqqq$&.%%%%%%%:>>>>>>>>>>>>:q++qqqq2&&$qqqqqqqq2qqqq$",
"&-eeeesq&$$$$$$$$.X.XXXXX::>>>>>>>>>>::2++++2$&&$&&&&&&$+++++$$&",
"&-eeeesq&$--------o-ooo.XX::>>o.&->>::2q++-------------+++-----$",
"&-eeeesq&--eeeeeeeeee*o%Xo:tt4o%Xo4tt:sq+--eeeeeeeeeee-q+--eee-q",
"&-eeeesq$-eeeeeeeeeeee=%X,ttt4e%.o4ttt,q+-eeeeeeeeeeeeeq+-eeeeeq",
"$-eeeesq&-eeeeeeeeeeee7%,44444sq$o44444,+-eeeeeeeeeeeesq+-eeeeeq",
"$-eeessq&-eeeeeeee33e77q,,,,,esq&-e,,,,,$-eeeeeeeeeeeesq+-eeeeeq",
"&-qeesqq&-qessssw2se37qq$-ee2esq&-qsesqq$-qeseeesssessqq+-eeeeeq",
"&$qqqqq$&$qqqqqqq22q23q$$-eeeesq$$qqqqq$&$qqqqqqqqqqqqq$+-eeeeeq",
"&&$&&$$$$$$$$$$$&$$$&&&&$-eeeesq&&$$$$$&&&&$$&&&$$$&&&$$+-eeee2q",
"$$-------------&&$-----$$-eeeesq&$-------------$$&-----$+-e2ee2q",
"+--eeeeeeeeeee-q&--eee-q&-eee2s2&--eeeeeeeeeee-q&--eee-q$-e2e3eq",
"+-eeeeeeeeeeeeaq$-eeeeeq&-eeees2&-eeeeeeeeeeeesq&-eeeesq$-e333eq",
"+-eeeeeeeeeeessq$-eeeeeq&-eeessq&-eeeeeeeeeeeesq$-eeeesq$-eee3eq",
"+-eeeeeee733essq$-eeeesq$-eeessq$-eeeeeeeeeeeesq$-eeeesq$-eee32q",
"+-qssee33eesssqq$-eeeesq&-qsssqq$-qsssssfsesesqq$-eeeesq$-qeeeq2",
"++qqqq3qqqqqqqq$&-eeeesq&$qqqqq$$$qqqqqffpqqqqq$&-eeeesq$$qqqqq+",
"++++++3$$&&&&&$&$-eeeesq&&&&&&&$&&&&$$$ffp$&&&&&&-eeeesq$$+$++++"
};
