/* XPM */
static char *result[] = {
/* columns rows colors chars-per-pixel */
"64 64 49 1 ",
"  c #2F3233",
". c #37393A",
"X c #234537",
"o c #293F46",
"O c #2A3F46",
"+ c #255541",
"@ c #1F7D53",
"# c #266349",
"$ c #316F52",
"% c #176077",
"& c #444748",
"* c #444849",
"= c #494949",
"- c #515556",
"; c #585858",
": c #626465",
"> c #6A7275",
", c gray45",
"< c #C52F00",
"1 c #ED3A02",
"2 c #FC470E",
"3 c #FF5E2C",
"4 c #C9745A",
"5 c #F57E59",
"6 c #359066",
"7 c #36AC75",
"8 c #F7A143",
"9 c #FFAE55",
"0 c #FF8A65",
"q c #FEC469",
"w c #FFC97E",
"e c #2081A0",
"r c #28DF89",
"t c #29DF89",
"y c #25A4CC",
"u c #32C0ED",
"i c #8C8F90",
"p c #AAADAB",
"a c #AEAEAE",
"s c #FFAF95",
"d c #E5C394",
"f c #FCE0BA",
"g c #F889EC",
"h c #FFB4F7",
"j c #BBC4C7",
"k c #BFCACE",
"l c #FEF1DE",
"z c #FFCFFA",
"x c #EFF3F4",
/* pixels */
",,777,,;;;,,,,,==,aaaaai==,,,,,,,,,,,,,zzh,,,,,==,aaaaai;;,,,,,,",
"aaaa7a,i;,,aaa,i=,aaaaki=,,aaaaaaaaaaa,ih,,aaa,i;,aaaaki;,,aaaaa",
"zaaa7aai;,aaaaai=,aaaaki;,aaaaaaaaaaaaki$,aaaaai=,aaaaki=,aaaazz",
"hha7aaki;,aaaaai=,aaaaki;,aaaaaaaa7aaaki$,aaaaki;,aaaaki=,aaahhg",
"hraaaaki;,aaaaki;,aaaaki;,aaaa6a7aaaaaki$,aaaaki;,aaakki=,aaaahh",
"rkkkakii;,aaaaki;,iakkii;,aakkaaakkakkii$,aaaaai=,iakkii;,aakkkk",
"iiiiiii=;,aaaaki;=iiiii=;;iiiii7i777iii$$,aaaaki==iiiii=;;iiiiii",
"=;;;;;;==,aaaaki==3;s;==;;;;;=6==;=;=;$$$,asa3ai;=;;=======;;===",
";;,,,,,==,aaaaai=6,3s,,,,,,,,,6==;,,,,,$$,as3aki==,,,,,,,,,,,,;=",
"=,,aaa,i=,aaaaai6,3a3saaaaaaar,6=,,aaa,i=,s3a3ki;,,aaaa7a7aaaa,i",
"=,aaaaai=,aaaaki$,aa30s777aarak66,aaarki=s03aaki;,aaa77aaaaaaaai",
"=,aaaaki=zzzaaki$,aa300sa66raaki6,aaaaris003aaki=,aaaaaaaaraaaai",
"=,aaaaai=zgzhaki$,aa3000saaaaaki$,aaaars0003aaki;,aaaaaaaaarrkki",
"$,aaaaki=hgzhaii$,iak3000skkkkii$,aaaas0003akkii;,iaaaakkkkr7kii",
"$,aaaaki==hhhii$$$iiz30000siissssssaas00003iiii=;=iiiiiiiiii77i$",
"$,aaaaai======$$$x$$z30w000sss0000sss000w03;;;==;===;==;=;;;;$$$",
"$,aaaaai==,,,,,,xlf,hg3ww80000000000008ww3,,,,,,,,,,,,,=;=,,,,,$",
"$,aaaaai=,,ahhhxxlfaah30ww800000000008ww03,aaaaaaazzza,i;,,aaa,i",
"$,aaaaai=,ahgxxxllffaaa3ww000000000000ww3,aaaaaaazzgghai=,aaaaai",
"$,aaaaki=,aaxxlllfffaak30sss00000000sss03,aaaaaaaahhha7i;,aaaaai",
"=,aaaaki;,aOxlllffffaak3sssss050050sssss3,aaaaaaaaa6a67i;,aaaaai",
";,iakkii;,OOOllffffkkai30xxxx005500xxxx03,iaazzkkakk66ii=,aaaaai",
";=iiiii=;3*OOOOfffOiii300xxotx0550xotxx003iiihzhiiii6ii==zaaaaai",
";;==;;;=;33*OOOOOOz===300kxoox0990xooxk00366$$hh$$$66===zzhaaaai",
"==,,,,,,,3*3**OOOOz,,,d000kkk089980kkk000d6,,,<<$$,,,,,=zghaaaki",
"=,,aaaaaa333*0****zaaadd0000089999800000ddaaa<<<<,,aaa,izghaaaki",
"=,aaaaaaa33000ss*ssaaafdd00dl999999ld00ddfaa<<<<<<<<aaai=haaaaki",
"=,aaaaaaa330000ssssaaalffddfdll99lldfddffla<<<ki<<<aaaai=,aaaaki",
"=,aaaaaaa333000sssssaaalffffdlOOOOldffffla<<<kkzzzaaaaki;,aaakki",
"=,ikkkkkkk330000ssssaak3lffffdlOOldffffl3<<kkkzzghhaaaki;,iaakii",
"==iiiiiiii3330000ssssak33lllffddddfflll331111iihhhaaaaai==iiiii=",
";;;;;==;=;;3330000sssaa2333llllllllll3332==1111==,aaaaki;==;;;=;",
",,,,,,,==;,,3330000ssski2233333333333322;=,,,111;,aaaaki==,,,,,,",
"aaaaak,i=,&::3330000ss>-%22233333333222%;,,aaa,11,aaaaki=,,aaaaa",
"aaaaaaki=,a:+:333000sssey%%2222222222%%ye,aa7a77;,aaaaki;,aaaaaa",
"aaaaaaki=,a:+##333000seyyye%%%%%%%%%%eyyyeaaa7ki;,aaaaki;,aaaaaa",
"aaaaaaki &aa:::-33300eyyyyyuuuyy%yuuuyyyyyeaa7ai=,aaakki;,aaaaaa",
"kkakaki- &+aa:>-X3330eyyyeyuuyyq%yyuuyyeyyeaaaki;,iaakii=,iakkkk",
"ikiiiii  &:6a7:-XX-33eyyeeyuuyyy%yyuuyeeyyeaaaki==iiiii=;;iiiiii",
";;;;===  &:+7ak-XX X3eyy4eyuuyyq%yyuuye;yyea7at76;;=====;;;;=;;=",
";;,,,,,  &+::akiXX&&&eyy4eyuuyyy%yyuuye;yyea6aki6=,,,,,,,,,,,,,=",
";,,aaa,, &::::ki &&::e004eyuuyyq%yyuuyei00e66a666,,aaazaaaaaaa,i",
";,aaaaai=&::::>-$&:::30s:eyuuuyy%yuuuyeis03a6a6i=,aaazzzaaaa66ai",
"=,aaaaki=,::::>-X&:::30::yyuuuuq%uuuuyyi$03a6a666,aaazgzaaa6aaai",
"=,aaaaai=,a::>>-X&:::::::<uuuuuu%uuuuu<i$,aaa6ki=,aaazgza6a6akki",
"=,aaaaai;,ikk>-- &-:>>:>>1<<<<<<<<<<<<1i$,ikkk6i=,iakazkka6kkkii",
";,aaaaki==iiiii . -------12222222222221i$$iiii6;;=iiiiiiii6iiii=",
";,aaaaki;======== . .....112222222222116$$$$6=;;=;;;;;;=$$$$$==;",
";,aaaaki;=,,,,,,,,,&&&& ..1122& ;,22116i$$,,,,,,,,,,,,,$$$,,,,,=",
";,aaaaki;,,aaaaaaaaa::&-.&3120&-.,0213ki$,,aaaaaaaaaaa,i$,,aaa,i",
";,aaaaki=,aaaaaaaaaaaa>-.3sss0a- &0sss3i$,aaaaaaaaaaaaai$,aaaaai",
"=,aaaaki;,aaaaaaaaaaaa@-300000ki &000003$,aaaaaaaaaaaaki$,aaaaai",
"=,aaakki;,aaaaaaaa77arr-33333aki;,:33333=,aaaaaaaaaaaaki$,aaaaai",
";,iaakii;,iakkkkp6ka7rii=,aa6aki;,ikakii=,iakaaakkkakkii$,aaaaai",
";=iiiii=;=iiiiiii66i67i==,aaaaki==iiiii=;=iiiiiiiiiiiii=$,aaaaai",
";;=;;===========;===;;;;=,aaaaki;;=====;;;;==;;;===;;;==$,aaaa6i",
"==,,,,,,,,,,,,,;;=,,,,,==,aaaaki;=,,,,,,,,,,,,,==;,,,,,=$,a6aa6i",
"$,,aaaaaaaaaaa,i;,,aaa,i;,aaa6k6;,,aaaaaaaaaaa,i;,,aaa,i=,a6a7ai",
"$,aaaaaaaaaaaaji=,aaaaai;,aaaak6;,aaaaaaaaaaaaki;,aaaaki=,a777ai",
"$,aaaaaaaaaaakki=,aaaaai;,aaakki;,aaaaaaaaaaaaki=,aaaaki=,aaa7ai",
"$,aaaaaaar77akki=,aaaaki=,aaakki=,aaaaaaaaaaaaki=,aaaaki=,aaa76i",
"$,ikkaa77aakkkii=,aaaaki;,ikkkii=,ikkkkkzkakakii=,aaaaki=,iaaai6",
"$$iiii7iiiiiiii=;,aaaaki;=iiiii===iiiiizzhiiiii=;,aaaaki==iiiii$",
"$$$$$$7==;;;;;=;=,aaaaki;;;;;;;=;;;;===zzh=;;;;;;,aaaaki==$=$$$$"
};
