/* XPM */
static char *result[] = {
/* columns rows colors chars-per-pixel */
"64 64 54 1 ",
"  c #303233",
". c #373A3B",
"X c #234537",
"o c #2A3F46",
"O c #265641",
"+ c #266349",
"@ c #316F52",
"# c #176077",
"$ c #444748",
"% c #444849",
"& c #494949",
"* c #515557",
"= c #585858",
"- c #626465",
"; c #6B7275",
": c gray45",
"> c #C52F00",
", c #ED3A02",
"< c #FC470E",
"1 c #D3532C",
"2 c #D85F39",
"3 c #FF5E2C",
"4 c #E67F5E",
"5 c #F57E59",
"6 c #359066",
"7 c #36AC75",
"8 c #F7A143",
"9 c #FFAE55",
"0 c #FF8A65",
"q c #FD8B67",
"w c #FEC469",
"e c #875284",
"r c #8A688A",
"t c #8A758B",
"y c #2081A0",
"u c #28DF89",
"i c #29DF89",
"p c #25A4CC",
"a c #32C0ED",
"s c #8C8F90",
"d c #AAADAB",
"f c #AEAEAE",
"g c #EBA28A",
"h c #FFAF95",
"j c #E7C597",
"k c #FCE0BA",
"l c #FCE1BD",
"z c #F889EC",
"x c #FFB4F7",
"c c #BBC4C7",
"v c #BFCACE",
"b c #FEF1DE",
"n c #FFCFFA",
"m c #EFF3F4",
/* pixels */
"::777::===:::::&&:fffffs&&:::::::::::::nnx:::::&&:fffffs==::::::",
"ffff7f:s=::fff:s&:ffffvs&::fffffffffff:sx::fff:s=:ffffvs=::fffff",
"nfff7ffs=:fffffs&:ffffvs=:ffffffffffffvs@:fffffs&:ffffvs&:ffffnn",
"xxf7ffvs=:fffffs&:ffffvs=:ffffffff7fffvs@:ffffvs=:ffffvs&:fffxxz",
"xuffffvs=:ffffvs=:ffffvs=:ffff6f7fffffvs@:ffffvs=:fffvvs&:ffffxx",
"uvvvfvss=:ffffvs=:sfvvss=:ffvvfffvvfvvss@:fffffs&:sfvvss=:ffvvvv",
"sssssss&=:ffffvs=&sssss&h=sssss7h777sss@@:ffffvs&&sssss&==ssssss",
"&======&&:ffffvs&&====&&h=3==&h&h=3=&=@@@:fffffs=&==&&&&&&&==&&&",
"==:::::&&:fffffs&6:6::::h3::::6hh3:::::@@:ffffvs&&::::::::::::=&",
"&::fff:s&:fffffs6::f6fffh03ffu:6h03fff:s&:ffffvs=::ffff7f7ffff:s",
"&:fffffs&:ffffvs@:ff66f7h03fufv6h03ffuvs&:ffffvs=:fff77ffffffffs",
"&:ffffvs&nnnffvs@:ffff76h033ffvsh033ffus=:ffffvs&:ffffffffuffffs",
"&:fffffs&nznxfvs@:ffff6fh003ffvsh003ffus&:ffffvs=:fffffffffuuvvs",
"@:ffffvs&xznxfss@:sfvnvvh003vvssh003ffis&:sfvvss=:sffffvvvvu7vss",
"@:ffffvs&&xxxss@@@ssnnxsh0003hhhh0033ffs=&sssss&=mmmmsssssss77s@",
"@:fffffs&&&&&&@@@@@@nnx&=00hhh00h00037vs=&&===&mmmbbk&&=&====@@@",
"@:fffffs&&::::::::::xzx&=0h0000h00003hvs=&:::mmmbbkkk::&=&:::::@",
"@:fffffs&::fxxxffffffx:s=h000000000300hs=::fmmmbbkkknf:s=::fff:s",
"@:fffffs&:fxzznnfffffffsh0000000000300hs=:fmmmbbkkkkzxfs&:fffffs",
"@:ffffvs&:ffnnnfffffffvh00000000hhh0000h=:fombbkkkkxxf7s=:fffffs",
"&:ffffvs=:ffffffffffffhh000000hhhhh0000h=:oobbkkkkk6f67s=:fffffs",
"=:sfvvss=:sfvfvvvvvvvfhm050500mmmm00000h=%%oookkkkvv66ss&:fffffs",
"=&sssss&=&sssssssnsssshim5550miomm00000h=%%oooooooss6ss&&nfffffs",
"==&&===&==&&=&=&xnn&&&hom0500moomv00000h=h%%ooooo%@66&&&nnxffffs",
"&&:::::::::::::&xzn:::hvv8990vvvv000000h:hh%%%%o%3:::::&nzxfffvs",
"&::fffffffffff:sxxnfffhb899980000000000hfhhh>>0%%33fff:snzxfffvs",
"&:ffffffffffffvs&xffffv89998bb000000000hxfh>>>>00333fffs&xffffvs",
"&:ffffffffffffvs=:ffff89998bbbb00000q0hxx6>>>>>>>>33fffs&:ffffvs",
"&:ffffffff-ff6;s=:ffffoooobbbbbb00000h6ff>>>hh>>>033ffvs=:fffvvs",
"&:svvvvvvv-;f6O*=:ffffjookjjbbbbb0000h3f>>>hhhh00033ffvs=:sffvss",
"&&ssssssss**Os* .:ffffvjllkljjbbbb00h33>>sshhh000033fffs&&sssss&",
"=====&&=&=.... O.:fffff*jllllljjlllh333,,,,hh0000333ffvs=&&===&=",
":::::::&&=$$$$$.O$ffffv* <333333333333<==,,,,000333fffvs&&::::::",
"fffffv:s&:$---$*X$ffffvsO<<<3333333#<<:s=:h,,,03333fffvs&::fffff",
"ffffffvs&$--O-;+O$ffffvsX$y<<<<<<<#a#vvs=:hh0,,333ffffvs=:ffffff",
"ffffffvs&$--O++*X$-ffvvsX$y######yaapfvs=hh000333:ffffvs=:ffffff",
"ffffffvs $-----*X$--fvvsXy#pppaaayaaapvshh000333&:fffvvs=:ffffff",
"vvfvfv** $O---;*X$*;;vs*Xy#wpppaaayaapshh000333s=:sffvss&:sfvvvv",
"svssss*  $-O-+-*XX*****XXy#ppppaaapyaapg000333vs&&sssss&==ssssss",
"====&&   $-O+-;*XX X Xttyp#wpppaaappyapg00333fi76==&&&&&====&==&",
"==:::::& $O---;*XX$$$reeyp#ppppaaappyap443336fvs6&:::::::::::::&",
"=::fff::&:----;* $$---rry0#wpppaaappy00411366f666::fffnfffffff:s",
"=:fffffs&:fff-;*X$------h0#pppaaaapph03111ff6f6s&:fffnnnffff66fs",
"&:ffffvs&:ffff;*X$-------0#waaaaaappp0311:ff6f666:fffnznfff6fffs",
"&:fffffs&:fffvv*X$--------y#aaaaaappp111@:fff6vs&:fffnznf6f6fvvs",
"&:fffffs=:svvvss&$*-;;-;;;;pppppppp>11vs@:svvv6s&:sfvfnvvf6vvvss",
"=:ffffvs&&sssss&=&*********>>>>>>>><fffs@@ssss6==&ssssssss6ssss&",
"=:ffffvs=&&&&&&&&&= ......  ,<<<<<<<f6f6@@@@6&==&======&@@@@@&&=",
"=:ffffvs=&:::::::::::$$ ..$$>>> .,<<ff6s@@:::::::::::::@@@:::::&",
"=:ffffvs=::fffffffffff$*.$$2>55*3,<0ffvs@::fffffffffff:s@::fff:s",
"=:ffffvs&:ffffffffffffv*.$200053hhh0fffs@:fffffffffffffs@:fffffs",
"&:ffffvs=:ffffffffffffus=25522300000fffs@:ffffffffffffvs@:fffffs",
"&:fffvvs=:ffffffff77fuus=2222f233333ffvs&:ffffffffffffvs@:fffffs",
"=:sffvss=:sfvvvvd6vf7uss&:ff6fvs=:svfvss&:sfvfffvvvfvvss@:fffffs",
"=&sssss&=&sssssss66s67s&&:ffffvs&&sssss&=&sssssssssssss&@:fffffs",
"==&==&&&&&&&&&&&=&&&====&:ffffvs==&&&&&====&&===&&&===&&@:ffff6s",
"&&:::::::::::::==&:::::&&:ffffvs=&:::::::::::::&&=:::::&@:f6ff6s",
"@::fffffffffff:s=::fff:s=:fff6v6=::fffffffffff:s=::fff:s&:f6f7fs",
"@:ffffffffffffcs&:fffffs=:ffffv6=:ffffffffffffvs=:ffffvs&:f777fs",
"@:fffffffffffvvs&:fffffs=:fffvvs=:ffffffffffffvs&:ffffvs&:fff7fs",
"@:fffffffu77fvvs&:ffffvs&:fffvvs&:ffffffffffffvs&:ffffvs&:fff76s",
"@:svvff77ffvvvss&:ffffvs=:svvvss&:svvvvvnvfvfvss&:ffffvs&:sfffs6",
"@@ssss7ssssssss&=:ffffvs=&sssss&&&sssssnnxsssss&=:ffffvs&&sssss@",
"@@@@@@7&&=====&=&:ffffvs=======&====&&&nnx&======:ffffvs&&@&@@@@"
};
