/* XPM */
static char *result[] = {
/* columns rows colors chars-per-pixel */
"64 64 51 1 ",
"  c #303233",
". c #373A3B",
"X c #244538",
"o c #2A3F46",
"O c #265642",
"+ c #266449",
"@ c #316F52",
"# c #176077",
"$ c #454748",
"% c #444849",
"& c #494949",
"* c #515557",
"= c #585858",
"- c #626566",
"; c #6B7376",
": c gray45",
"> c #C52F00",
", c #ED3A02",
"< c #FC470E",
"1 c #D3532C",
"2 c #D85F39",
"3 c #FF5E2C",
"4 c #E67F5E",
"5 c #F57E59",
"6 c #359066",
"7 c #36AC75",
"8 c #F7A143",
"9 c #FFAE55",
"0 c #FF8A65",
"q c #FD8B67",
"w c #FEC469",
"e c #2081A0",
"r c #28DF89",
"t c #29DF89",
"y c #25A4CC",
"u c #32C0ED",
"i c #8C8F90",
"p c #AAADAB",
"a c #AEAEAE",
"s c #EBA28A",
"d c #FFAF95",
"f c #E7C597",
"g c #FCE0BA",
"h c #FCE1BD",
"j c #F889EC",
"k c #FFB4F7",
"l c #BBC4C7",
"z c #BFCACE",
"x c #FEF1DE",
"c c #FFCFFA",
"v c #EFF3F4",
/* pixels */
"::777::===:::::&&:aaaaai&&:::::::::::::cck:::::&&:aaaaai==::::::",
"aaaa7a:i=::aaa:i&:aaaazi&::aaaaaaaaaaa:ik::aaa:i=:aaaazi=::aaaaa",
"caaa7aai=:aaaaai&:aaaazi=:aaaaaaaaaaaazi@:aaaaai&:aaaazi&:aaaacc",
"kka7aazi=:aaaaai&:aaaazi=:aaaaaaaa7aaazi@:aaaazi=:aaaazi&:aaakkj",
"kraaaazi=:aaaazi=:aaaazi=:aaaa6a7aaaaazi@:aaaazi=:aaazzi&:aaaakk",
"rzzzazii=:aaaazi=:iazzii=:aazzaaazzazzii@:aaaaai&:iazzii=:aazzzz",
"iiiiiii&=:aaaazi=&iiiii&==iiiiidi777iiid@:aaaazi&&iiiii&==iiiiii",
"&======&&:aaaazi&&====&&=====36d&d&=&3@d@:aaaaai=&==&&&&&&&==&&&",
"==:::::&&:aaaaai&6:6::::::::::3dd=::::3d@:aaaazi&&::::::::::::=&",
"&::aaa:i&:aaaaai6::a6aaaaaaaa30d&::aa30d&:aaaazi=::aaaa7a7aaaa:i",
"&:aaaaai&:aaaazi@:aa66a777aar30d6:aaa30d&:aaaazi=:aaa77aaaaaaaai",
"&:aaaazi&cccaazi@:aaaa76a66r330d6:aa330d=:aaaazi&:aaaaaaaaraaaai",
"&:aaaaai&cjckazi@:aaaa6aaaaa300d@:aa300d&:aaaazi=:aaaaaaaaarrzzi",
"@:aaaazi&kjckaii@:iazczzzzzz300d@:aa300d&:iazzii=:iaaaazzzzr7zii",
"@:aaaazi&&kvvvv@@@iicckiiii3300dddd3000d=&iiiii&=&iiiiiiiiii77i@",
"@:aaaaai&&&gxxvvv@@@cck&===3000d00ddd00i=&&===&&=&&&=&&=&====@@@",
"@:aaaaai&&:gggxxvvv:kjk&=&d30000d0000d0i=&:::::::::::::&=&:::::@",
"@:aaaaai&::agggxxvvvak:i=d003000000000di=::aaaaaaaccca:i=::aaa:i",
"@:aaaaai&:akggggxxvvvaai=d0030000000000d=:aaaaaaaccjjkai&:aaaaai",
"@:aaaazi&:aacggggxxvoazid0000ddd00000000d:aaaaaaaakkka7i=:aaaaai",
"&:aaaazi=:aaagggggxxoozid0000ddddd000000ddaaaaaaaaa6a67i=:aaaaai",
"=:iazzii=:iazaggggooo%%id00000vvvv005050vdiaacczzazz66ii&:aaaaai",
"=&iiiii&=&iiiiooooooo%%&d00000vvotv0555vtdiiikckiiii6ii&&caaaaai",
"==&&===&==&&=&%ooooo%%d=d00000zvoov0055vod66@@kk@@@66&&&cckaaaai",
"&&::::::::::::3%o%%%%dd&d000000zzzz0998zzd6::::@@@:::::&cjkaaazi",
"&::aaaaaaaaaa33%%0>>dddid000000000089998xdaaaa:i@::aaa:icjkaaazi",
"&:aaaaaaaaaa33300>>>>dzid000000000xx89998aaaaaai@:aaaaai&kaaaazi",
"&:aaaaaaaaaa33>>>>>>>>zi=d0q00000xxxx89998aaaazi@:aaaaai&:aaaazi",
"&:aaaaaaaaaa330>>>dd>>>i=:d00000xxxxxxoooo6aazzcccaaaazi=:aaazzi",
"&:izzzzzzzaz33000dddd>>>=3d0000xxxxxffgoofzzzzccjkkaaazi=:iaazii",
"&&iiiiiiiiii330000dddaz>>33d00xxxxffhghhfiiiiiikkkaaaaai&&iiiii&",
"=====&&=&===3330000dd,,,,333dhhhffhhhhhf&&&====&&:aaaazi=&&===&=",
":::::::&&=:::333000,,,,i&<333333333333<==&:::::&=:aaaazi&&::::::",
"aaaaaz:i&:$-a33330,,,dzi6:<<#3333333<<<i=::aaa:i=:aaaazi&::aaaaa",
"aaaaaazi&:a-O-333,,0ddzi@:a#u#<<<<<<<ezi=:aa7a77=:aaaazi=:aaaaaa",
"aaaaaazi&:a-O++333000ddi@:ayuue######ezi=:aaa7zi=:aaaazi=:aaaaaa",
"aaaaaazi&:aa---*333000dd@:yuuueuuuyyy#ei=:aaa7ai&:aaazzi=:aaaaaa",
"zzazazii&:6a--;*X333000dd:yuueuuuyyyw#ei&:aaaazi=:iaazii&:iazzzz",
"iziiiii&&:a6-+-*XX333000syuueyuuuyyyy#e=&:aaaazi&&iiiii&==iiiiii",
"====&&&&&:aO+-;*XX 33300syueyyuuuyyyw#ye=:6a7at76==&&&&&====&==&",
"==:::::&&:6---;*XX$$33344yueyyuuuyyyy#ye&:6a6azi6&:::::::::::::&",
"=::aaa::&:a---;* $$--311400eyyuuuyyyw#0e&:666a666::aaacaaaaaaa:i",
"=:aaaaai&:aa--;*X$----11130dyyuuuuyyy#0d@:aa6a6i&:aaacccaaaa66ai",
"&:aaaazi&:aa--;*X$-----1130yyyuuuuuuw#0i@:aa6a666:aaacjcaaa6aaai",
"&:aaaaai&:aaa;;*X$------111yyyuuuuuu#ezi@:aaa6zi&:aaacjca6a6azzi",
"&:aaaaai=:izzz** $*-;;-;;;11>yyyyyyyyazi@:izzz6i&:iazaczza6zzzii",
"=:aaaazi&&iiiii . **********<>>>>>>>>aai@@iiii6==&iiiiiiii6iiii&",
"=:aaaazi=&&&&&&&& . ......  <<<<<<<,a6a6@@@@6&==&======&@@@@@&&=",
"=:aaaazi=&:::::::::$$$$ ..$$<<, .>>>aa6i@@:::::::::::::@@@:::::&",
"=:aaaazi=::aaaaaaaaaa-$*.$$-0<,3.55>2azi@::aaaaaaaaaaa:i@::aaa:i",
"=:aaaazi&:aaaaaaaaaaaaz*.$--0ddd350002ai@:aaaaaaaaaaaaai@:aaaaai",
"&:aaaazi=:aaaaaaaaaaaari=$--00000322552i@:aaaaaaaaaaaazi@:aaaaai",
"&:aaazzi=:aaaaaaaa77arri=:a-333332a2222i&:aaaaaaaaaaaazi@:aaaaai",
"=:iaazii=:iazzzzp6za7rii&:aa6azi=:izazii&:iazaaazzzazzii@:aaaaai",
"=&iiiii&=&iiiiiii66i67i&&:aaaazi&&iiiii&=&iiiiiiiiiiiii&@:aaaaai",
"==&==&&&&&&&&&&&=&&&====&:aaaazi==&&&&&====&&===&&&===&&@:aaaa6i",
"&&:::::::::::::==&:::::&&:aaaazi=&:::::::::::::&&=:::::&@:a6aa6i",
"@::aaaaaaaaaaa:i=::aaa:i=:aaa6z6=::aaaaaaaaaaa:i=::aaa:i&:a6a7ai",
"@:aaaaaaaaaaaali&:aaaaai=:aaaaz6=:aaaaaaaaaaaazi=:aaaazi&:a777ai",
"@:aaaaaaaaaaazzi&:aaaaai=:aaazzi=:aaaaaaaaaaaazi&:aaaazi&:aaa7ai",
"@:aaaaaaar77azzi&:aaaazi&:aaazzi&:aaaaaaaaaaaazi&:aaaazi&:aaa76i",
"@:izzaa77aazzzii&:aaaazi=:izzzii&:izzzzzczazazii&:aaaazi&:iaaai6",
"@@iiii7iiiiiiii&=:aaaazi=&iiiii&&&iiiiicckiiiii&=:aaaazi&&iiiii@",
"@@@@@@7&&=====&=&:aaaazi=======&====&&&cck&======:aaaazi&&@&@@@@"
};
