/* XPM */
static char *_fb59ace54214fd7c55ff959b5060d74zfvb1JCC621jgjSP[] = {
/* columns rows colors chars-per-pixel */
"64 64 35 1 ",
"  c #303233",
". c #373A3B",
"X c #244538",
"o c #64533A",
"O c #265642",
"+ c #1F7D53",
"@ c #266449",
"# c #316F52",
"$ c #454748",
"% c #494949",
"& c #515557",
"* c #585858",
"= c #626566",
"- c #6B7376",
"; c gray45",
": c #359066",
"> c #36AC75",
", c #BEA077",
"< c #FFC97E",
"1 c #875285",
"2 c #8B688A",
"3 c #8B758C",
"4 c #28DF89",
"5 c #8C8F90",
"6 c #AAADAB",
"7 c #AEAEAE",
"8 c #B7B1A8",
"9 c #E3BE8A",
"0 c #FCE0BA",
"q c #F889EC",
"w c #EEB3E8",
"e c #FFB4F7",
"r c #BFCACE",
"t c #FFCFFA",
"y c #FEE2FB",
/* pixels */
";;>>>;;***;;;;;%%;777775%%;;;;;;;;;;;;;tte;;;;;%%;777775**;;;;;;",
"7777>7;5*;;777;yyy7777r5%;;77777777777;5e;;777;5*;7777r5*;;77777",
"t777>775*;777tyyety777r5*;777777777777r5#;777775%;7777r5%;7777tt",
"ee7>77r5*;77tyee0ey77yyyy;77777777>777r5#;7777r5*;7777r5%;777eeq",
"e47777r5*;77tyyeeet7yyttyy7777:7>77777r5#;7777r5*;777rr5%;7777ee",
"4rrr7r55*;777ttyeettt0etty77rr777rr7rr55#;777775%;57rr55*;77rrrr",
"5555555%*;7777yyeeee0e0ety55555>5>>>555##;7777r5%%55555%**555555",
"%****ttt%;7777tqqqeee0eeet***%:%%*%*%yyyyy777775*%**%%%%%%%**%%%",
"**;;tyyyt;77777tttqeeeeeet;;;;:yy*;;yytttty777r5%%;;;;;;;;;;;;*%",
"%;;tyy0yy;7777ttettqeeeety777yyytyyytee0eety77r5*;;7777>7>7777;5",
"%;7tyeeeyy777tteeetteeeetty74yttttytee0e0ety77r5*;777>>777777775",
"%,<7yyeeettttteeeeeeeeeeetyyyttt0eeeeee0eety77r5%;77777777477775",
"%;7tytyeeeeeeeeee0eeeeeeeetttteeeeeeeeeeeey777r5*;77777777744rr5",
"#;tyyyyeeeeeeeee0e0eeeeeeeetteeeeeeeeeeeett7rr55*;57777rrrr4>r55",
"#tyyeeee<eeeeeeee0eeetyeeeeeeeeeeeeeeeeeeq55555yyyy555555555>>5#",
"#tye0ee,99eeeeeeeeeeeteeeeeeeeeeeeeeeeeeeq%***yyttty*%%*%****###",
"#ty0e0etq%9<eeyyeeeeeteeeeeeeeeeeeeeee0eq%;;;;yteetty;;%*yyyy;;#",
"#yye0eet%;;,yyytyyeeeeeeeeeeee0ee<eeeeeqq;;77ttee0ety7;5yyttyy;5",
"#tyeeett%;yyeeeeeeeeeqqqeeeee0e0e,yyyyeq*;yyytee0e0yye75yt0tty75",
"#qyttyyq%;yeeeeee<eeyyyyeeeeee0eeetttyyeeteeeeeee0eye7>yteeetty5",
"%qyyyqq5*ytee0eee9,ttttyeeeeeeeeeteeetyyeeeeeeeeqqqq7:eyeeeetyy5",
"*;qqqq5&.yee0e0eeqqteeeeeetyyqeeeeeeetttyeeeeeeeq7rtyyyyeeeety75",
"*%5555& .tyee0eeeqtteeeeeeetyyqeeeeeeeetyeeeeeeeqtttteeyyeeety75",
"**% ... qtteeeeeytteeeeeeeeettyqeeeeeeetyyee0eeeeteeeeetyyeet775",
"%%;$$$$$qyteeeeeyteeeeeeeeeeeetyeeeeeeetyye0e0eeeeeeeeeetyee77r5",
"%;;7=====qyyyeeeyteeeee0eeeeeeteeeeeeeetyqee0eeeeeeee0ettye777r5",
"%;777====qqtyyyeetteee0e0eeeeeeeeee0eeeyyqeeeeeeeeee0e0ttyq777r5",
"%;777=======qttteeeeeee0eeeeeeeeee0e0eetyqeeeeeeeeett0ttqq7777r5",
"%;7yyy=tyy=eeeeteeeeeeeteeeeeeeeeee0eeetyqeeeeeetttqqqqq*;777rr5",
"%;5yt0rte<eeeeeeeyyyyeeyeeeeeeeeeeeeeeetyqqqqeeeeetyyqr5*;577r55",
"%%5y0e0e<,tyeeeyqytetyeyeeeeeeeeeeeetttyyq9,,<eeeettyyttyy55555%",
"***tt0ee%*tyyyeqqyteeeetteeeeeeeeetttyyyqqq,qqqeeeettyeetty***%*",
";;;;teq%%*;ttqq.Oqttttttqttyeeeeeeeyyyqqqeeqqeeeeeeettyeetty;;;;",
"77777-$5 $$===$&X$qqqqtqeqqqyeeeeeeeqqqetyqeeeee0eeeetyeeetty777",
"7=====-& $==O=-@O$===7qqqewqqeeeeeeeeeeeetyqeee0e0eeetyeeeety777",
"======-& $==O@@&X$===-r<qqqqeeeeeeeeeeeeetyyqeee0eeeetyeee0ty777",
"======-& $=====&X$===-r5<9qqqeeeeeeteeeeettyqeeeeeeeeyqeeetyy777",
"r-=-=-&& $O===-&X$&---&5<<99qeeeeeettteeetty7qeeeeeeyq5qqtyyrrrr",
"5r55&55%%;7:7@=&XX&&&&&XX<99qeeee0eettqeeyyy77qqqeyyq55%qqq55555",
"****%%%%%;7:>7r&XX X%X333X<9qeee0e0eetttyyyq>74qqqqq%%%%****%**%",
"**;;;;;%%;:777r5XX$$$21122<<qqeee0eeettyyyq7:7r5:%;;;;;;;;;;;;;%",
"*;;777;;%;7777r5 $$===222==<9qtteeeetyyyqq:::7:::;;777t7777777;5",
"*;777775%;7777r5#$=========749qytyyyyyqq#;77:7:5%;777ttt7777::75",
"%;7777r5%;7777r5#;=========7#:9##qqqqqr5#;77:7:::;777tqt777:7775",
"%;777775%;777rr5#;7=======O=8<#9,o#o77r5#;777:r5%;777tqt7:7:7rr5",
"%;777775*;5rrr55%;5=--=-----<999,,ooo7r5#;5rrr:5%;57r7trr7:rrr55",
"*;7777r5%%55555%*%55&&&&&&&4<99,,oooo775##5555:**%55555555:5555%",
"*;7777r5*%%%%%%%%%*%...... <#:9,oooo7:7:####:%**%******%#####%%*",
"*;7777r5*%;;;;;;;;;;;$$ ..<99:#,ooo777:5##;;;;;;;;;;;;;###;;;;;%",
"*;7777r5*;;777777777==$&.$<999,#oo7777r5#;;77777777777;5#;;777;5",
"*;7777r5%;7777777777==-&#4499,oo#$777775#;77777777777775#;777775",
"%;7777r5*;777777777===+&<#49,ooo $=77775#;777777777777r5#;777775",
"%;777rr5*;77777777>@=+<4<9##ooooo$==77r5%;777777777777r5#;777775",
"*;577r55*;57rrrr6:-=@44<<99,>#ooooo-7r55%%%7r777rrr7rr55#;777775",
"*%55555%*%555555%O44499<99,,,#>o>ooo&&5%*%%%59,,9o55555%#;777775",
"**%**%%%%%%%%%%%.4<<9>,<999,,:::,,:ooo ****%<,ooooo***%%#;7777:5",
"%%;;;;;;;;;%%%%###:,>>,o<<9,,oo:%:,oooo;%;%<9,o%%oo9%%;%#;7:77:5",
"#;;777777777%%%##:::o:o:o<<9>##;%%%%:ooor%%%%%%%*%%%%%;5%;7:7>75",
"#;7777777777rr%%%:;;;::#oo<>##;%%;;%%#:%rrr%%%%%%%%%%7r5%;7>>>75",
"#;77777777777rr5%%%rrr#::#oo;#%%%ooo;;;#rorrr%%%%%%%77r5%;777>75",
"#;77777774>>7rr5%%77r7r:#::#7%%%rrrrrrrrrrr777r%%%%777r5%;777>:5",
"#;5rr77>>77rrr55%%7777:##:5#rr%%%;5rrrrrtr7r7r55%;7777r5%;57775:",
"##5555>55555555%*;7777r5#o#5555%%%55555tte55555%*;7777r5%%55555#",
"######>%%*****%*%;7777r5*o*o***%****%%%tte%******;7777r5%%#%####"
};
