/* XPM */
static char *_6da180994be41aaed5d25df8f227973NIYH5FWbuB7DS6CD[] = {
/* columns rows colors chars-per-pixel */
"64 64 29 1 ",
"  c #2A3F46",
". c #316F52",
"X c #494949",
"o c #41565D",
"O c #585858",
"+ c gray45",
"@ c #359066",
"# c #34B760",
"$ c #36AC75",
"% c #5D9279",
"& c #29DF5C",
"* c #5FAC88",
"= c #28DF89",
"- c #7ACFA7",
"; c #73D0A4",
": c #4FE9A1",
"> c #8C8F90",
", c #96B2A5",
"< c #AEAEAE",
"1 c #ABC8BB",
"2 c #FCE0BA",
"3 c #F889EC",
"4 c #FFB4F7",
"5 c #BFCACE",
"6 c #BFD9CD",
"7 c #C8DED4",
"8 c #D7E4DE",
"9 c #FFCFFA",
"0 c #E5F0EB",
/* pixels */
"++$$$++OOO+++++XX+<<<<<>XX+++++++++++++994+++++XX+<<<<<>OO++++++",
"<<<<$<+>O++<<<+>X+<<<<5>X++<<<<<<<<<<<+>4++<<<+>O+<<<<5>O++<<<<<",
"9<<<$<<>O+<<<<<>X+<<<<5>O+<<<<<<<<<<<<5>.+<<<<<>X+<<<<5>X+<<<<99",
"44<$<<5>O+<<<<<>X+<<<<5>O+<<<<<<<<$<<<5>.+<<<<5>O+<<<<5>X+<<<443",
"4=<<711111111111111111111111111111111111111;111;;*;;11*111**<<44",
"=555*71111111111111111111111111111111111;;11;;11;11*;1***1*%5555",
">>>>**711111111111111111111111111111111111111111;111*11***%%>>>>",
"XOOO1;*71111111111111111111111111111111111111111111111**1%%%OXXX",
"OO++*;*171;111111111111111111111111111111111111111111111,%%%++OX",
"X++<*;;11;;;;;;0;0000707:0:::0::::000000770000000000000,,%**<<+>",
"X+<<**;*;;;9;7777;7:;7;7:77:777777777777777777777777778,%**%<<<>",
"X+<<*;*;179297;;:7::7727:777777777777777777777777797778%%%%%<<<>",
"X+<<1***1079;7:7;7;772927777777777777777777777777929778%%**%=55>",
".+<<1**110;:77;;;;77772:7:77777777777777777777777797778,***%$5>>",
".+<<*1**1;;77;;;:##############################77777778,*%,%$$>.",
".+<<*11*1;;7:7:7#                              &7777778,*,%%O...",
".+<<1*1*1;;;:;7#   ooooooo                      &777778,*%%,+++.",
".+<<111110;:77#   o                              &77768,%%,%<<+>",
".+<<**1117;77;#  o                               &77877,%%%%<<<>",
".+<<*;111;:777# o                                &77777,**,,<<<>",
"X+<<11;110;7;7# o                                &77777***%%<<<>",
"O+><;111107::;# o                                &77768,,%*,<<<>",
"OX>>;1111;7777# o                                &77878,%%**<<<>",
"OOXX11-11:::;7# o                                &77778,,%,,<<<>",
"XX++1111107777# o                                &77677,*,*,<<5>",
"X++<11111;77;7# o                                &78677,%%*,<<5>",
"X+<<1111107::7#                                  &78777,,,,,<<5>",
"X+<<11111077:7#                                  &77778,*,%,<<5>",
"X+<<1111177777#                                  &77778,,*%,<55>",
"X+>51111107777#                                  &77778,,,**<5>>",
"XX>>111110:::7#                                  &77767,,,,,>>>X",
"OOOO1111107777#                                  &77867,,%*,OOXO",
"++++1111107777#                                  &77867,,,*,++++",
"<<<<1111107777#                                  &77877,,,*%<<<<",
"<<<<1111107777#                                  &77778,*%%,<<<<",
"<<<<1111107777#                                  &77778,,%,,<<<<",
"<<<<1111177777#                                  &76778,,*,,<<<<",
"55<51111177777#                                  &86778,,*,,5555",
">5>>1111107777#                                  &87778,,,*,>>>>",
"OOOO1111107777#                                  &77677,,,**XOOX",
"OO++1111107777#                                  &77877,,,,,+++X",
"O++<1111177777#                                  &78778,,,,,<<+>",
"O+<<1111177777#                                  &66778,,,,,@@<>",
"X+<<1111107777#                                  &86778,,,,,<<<>",
"X+<<1111107777#                                  &86778,*%%,<55>",
"X+<<1111107777#                                  &77778,,*,,55>>",
"O+<<1111177777#                                  &89678,,**%>>>X",
"O+<<11111777886#                                &792978,%%%%.XXO",
"O+<<111110777777#                              &7779778%%,*,+++X",
"O+<<1111107777777&&&&&&&&&&&&&&&&&&&&&&&&&&&&&&88867678,*%%%<<+>",
"O+<<111110777777777777667777778677777778677777787778778*%**%<<<>",
"X+<<111110778678867778777778867777888676778777777787778,%*,,<<<>",
"X+<<111110777786677778867778667777777777776788887777778%%,%*<<<>",
"O+><111110877777777776667776777777777777777776666777778,,***<<<>",
"OX>>111110888888888888888888888877788888887788888888888,,**,<<<>",
"OOXO1111,,,,,,,,*,,,,,,,,%,,,,,,,,,,,*,,,*,,,,,,,%,,,%*1,,,,<<@>",
"XX++111,,,*,,,,,,,,,,%,*%%%%%*%,**,,*,,,*,*,,*,%,*,,,*,,1%,%<<@>",
".++<11,,,,,*,,*,,,***%%,%*%%***,**,,,,*,,,,,,,%***%%%*,**1*%<$<>",
".+<<1,,,,*,,,***%%**,,%%%,,**%**%%,,,,,,,,,,***,%%*,**,**,1%$$<>",
".+<<,,,,,,,,,,,,**,,%%,,,,%,%,,%,,%*%,,,,,,,,,,,,,,%**,,%,,1<$<>",
".+<<<<<<<=$$<55>X+<<<<5>X+<<<55>X+<<<<<<<<<<<<5>X+<<<<5>X+<<<$@>",
".+>55<<$$<<555>>X+<<<<5>O+>555>>X+>5555595<5<5>>X+<<<<5>X+><<<>@",
"..>>>>$>>>>>>>>XO+<<<<5>OX>>>>>XXX>>>>>994>>>>>XO+<<<<5>XX>>>>>.",
"......$XXOOOOOXOX+<<<<5>OOOOOOOXOOOOXXX994XOOOOOO+<<<<5>XX.X...."
};
