/* XPM */
static char *_6958a5920fe4628d0671747864ed7e9xbtxyiEK63dvx3HX[] = {
/* columns rows colors chars-per-pixel */
"64 64 25 1 ",
"  c #316F52",
". c #494949",
"X c #585858",
"o c gray45",
"O c #359066",
"+ c #36AC75",
"@ c #5D9279",
"# c #5FAC88",
"$ c #28DF89",
"% c #7ACFA7",
"& c #73D0A4",
"* c #4FE9A1",
"= c #8C8F90",
"- c #96B2A5",
"; c #AEAEAE",
": c #ABC8BB",
"> c #FCE0BA",
", c #F889EC",
"< c #FFB4F7",
"1 c #BFCACE",
"2 c #BFD9CD",
"3 c #C8DED4",
"4 c #D7E4DE",
"5 c #FFCFFA",
"6 c #E5F0EB",
/* pixels */
"oo+++ooXXXooooo..o;;;;;=..ooooooooooooo55<ooooo..o;;;;;=XXoooooo",
";;;;+;o=Xoo;;;o=.o;;;;1=.oo;;;;;;;;;;;o=<oo;;;o=Xo;;;;1=Xoo;;;;;",
"5;;;+;;=Xo;;;;;=.o;;;;1=Xo;;;;;;;;;;;;1= o;;;;;=.o;;;;1=.o;;;;55",
"<<;+;;1=Xo;;;;;=.o;;;;1=Xo;;;;;;;;+;;;1= o;;;;1=Xo;;;;1=.o;;;<<,",
"<$;;3::::::::::::::::::::::::::::::::::::::&:::&&#&&::#:::##;;<<",
"$111#3::::::::::::::::::::::::::::::::::&&::&&::&::#&:###:#@1111",
"====##3:::::::::::::::::::::::::::::::::::::::::&:::#::###@@====",
".XXX:&#3::::::::::::::::::::::::::::::::::::::::::::::##:@@@X...",
"XXoo#&#:3:&:::::::::::::::::::::::::::::::::::::::::::::-@@@ooX.",
".oo;#&&::&&&&&&6&6666363*6***6****666666336666666666666--@##;;o=",
".o;;##&#&&&5&3333&3*&3&3*33*333333333333333333333333334-@##@;;;=",
".o;;#&#&:35>53&&*3**33>3*333333333333333333333333353334@@@@@;;;=",
".o;;:###:635&3*3&3&33>5>33333333333333333333333335>5334@@##@$11=",
" o;;:##::6&*33&&&&3333>*3*33333333333333333333333353334-###@+1==",
" o;;#:##:&&33&&&*&&&**333&&333333333333333>333333333334-#@-@++= ",
" o;;#::#:&&3*3*33&333&*333&*3333333333333>5>33333333334-#-@@X   ",
" o;;:#:#:&&&*&333*3&3333*33333333333333333>333333333334-#@@-ooo ",
" o;;:::::6&*333>333&3*333333333333333333333333333333324-@@-@;;o=",
" o;;##:::3&33&>5>3&333&33333333333333333333333333333433-@@@@;;;=",
" o;;#&:::&*3333>3&&3*3333333333333333333333333333333333-##--;;;=",
".o;;::&::6&3&333333&33333333333333333333333333333333333###@@;;;=",
"Xo=;&::::63**&333&*&33333333333333333333333333333333324--@#-;;;=",
"X.==&::::&33333333*333333333333333333333333333333333434-@@##;;;=",
"XX..::%::***&33&333333333333333333333333333333333333334--@--;;;=",
"..oo:::::633333*333&33333333333333333333333333333333233-#-#-;;1=",
".oo;:::::&33&33&&3*333333333333333333333333333333334233-@@#-;;1=",
".o;;:::::63**333333333333333333333333333333333333334333-----;;1=",
".o;;:::::633*333333333333333333333333333333333333333334-#-@-;;1=",
".o;;:::::33333*3333333333333333333333333333333333333334--#@-;11=",
".o=1:::::63333**333333333333333333333333333333333333334---##;1==",
"..==:::::6***33*333333333333333333333333333333333333323-----===.",
"XXXX:::::6333333333333333333333333333333333333333233423--@#-XX.X",
"oooo:::::6333333333333333333333333333333333333334233423---#-oooo",
";;;;:::::6333333333333333333333333333333333333333233433---#@;;;;",
";;;;:::::6333333333333333333333333333333333333334333334-#@@-;;;;",
";;;;:::::6333333333333333333333333333333333333342333334--@--;;;;",
";;;;:::::3333333333333333333333333333333333333>33332334--#--;;;;",
"11;1:::::333333333333333333333333333333333333>5>3342334--#--1111",
"=1==:::::6333333333333333333333333333333333333>33243334---#-====",
"XXXX:::::6333333333333333333333333333333333333334333233---##.XX.",
"XXoo:::::6333333333333333333333333333333333333333333433-----ooo.",
"Xoo;:::::3333333333333333333333333333342333333333334334-----;;o=",
"Xo;;:::::3333333333333333333333333333332333342333322334-----OO;=",
".o;;:::::6333333333333333333333333333333334423333342334-----;;;=",
".o;;:::::6333333333333333333333333333333332233333442334-#@@-;11=",
".o;;:::::6333333333333333333333333333333333333333433334--#--11==",
"Xo;;:::::3333333333333333333333333333442333332333445234--##@===.",
"Xo;;:::::333442333333333334433333344233333334233335>534-@@@@ ..X",
"Xo;;:::::6333333333444434422333333422333444242333335334@@-#-ooo.",
"Xo;;:::::6333333334223444223334233333334422334444423234-#@@@;;o=",
"Xo;;:::::6333333333333223333334233333334233333343334334#@##@;;;=",
".o;;:::::6334234423334333334423333444232334333333343334-@#--;;;=",
".o;;:::::6333342233334423334223333333333332344443333334@@-@#;;;=",
"Xo=;:::::6433333333332223332333333333333333332222333334--###;;;=",
"X.==:::::6444444444444444444444433344444443344444444444--##-;;;=",
"XX.X::::--------#--------@-----------#---#-------@---@#:----;;O=",
"..oo:::---#----------@-#@@@@@#@-##--#---#-#--#-@-#---#--:@-@;;O=",
" oo;::-----#--#---###@@-@#@@###-##----#-------@###@@@#-##:#@;+;=",
" o;;:----#---###@@##--@@@--##@##@@----------###-@@#-##-##-:@++;=",
" o;;------------##--@@----@-@--@--@#@--------------@##--@--:;+;=",
" o;;;;;;;$++;11=.o;;;;1=.o;;;11=.o;;;;;;;;;;;;1=.o;;;;1=.o;;;+O=",
" o=11;;++;;111==.o;;;;1=Xo=111==.o=1111151;1;1==.o;;;;1=.o=;;;=O",
"  ====+========.Xo;;;;1=X.=====...=====55<=====.Xo;;;;1=..===== ",
"      +..XXXXX.X.o;;;;1=XXXXXXX.XXXX...55<.XXXXXXo;;;;1=.. .    "
};
