/* XPM */
static char *_e154ff885914509c0896865a7f667e8wIO4PXpVspu1od27[] = {
/* columns rows colors chars-per-pixel */
"64 64 27 1 ",
"  c #316F52",
". c #494949",
"X c #585858",
"o c gray45",
"O c #ED3A02",
"+ c #359066",
"@ c #36AC75",
"# c #5D9279",
"$ c #5FAC88",
"% c #28DF89",
"& c #7ACFA7",
"* c #73D0A4",
"= c #4FE9A1",
"- c #8C8F90",
"; c #96B2A5",
": c #AEAEAE",
"> c #ABC8BB",
", c #FCE0BA",
"< c #F889EC",
"1 c #FFB4F7",
"2 c #BFCACE",
"3 c #BFD9CD",
"4 c #C8DED4",
"5 c #D7E4DE",
"6 c #FFCFFA",
"7 c #E5F0EB",
"8 c #F7F2F1",
/* pixels */
"oo@@@ooXXXooooo..o:::::-..ooooooooooooo661ooooo..o:::::-XXoooooo",
"::::@:o-Xoo:::o-.o::::2-.oo:::::::::::o-1oo:::o-Xo::::2-Xoo:::::",
"6:::@::-Xo:::::-.o::::2-Xo::::::::::::2- o:::::-.o::::2-.o::::66",
"11:@::2-Xo:::::-.o::::2-Xo::::::::@:::2- o::::2-Xo::::2-.o:::11<",
"1%::4>>>>>>>>>>>>>>>>>>>>>>>>>>>>>>>>>>>>>>*>>>**$**>>$>>>$$::11",
"%222$4>>>>>>>>>>>>>>>>>>>>>>>>>>>>>>>>>>**>>**>>*>>$*>$$$>$#2222",
"----$$4>>>>>>>>>>>>>>>>>>>>>>>>>>>>>>>>>>>>>>>>>*>>>$>>$$$##----",
".XXX>*$4>>>>>>>>>>>>>>>>>>>>>>>>>>>>>>>>>>>>>>>>>>>>>>$$>###X...",
"XXoo$*$>4>*>>>>>>>>>>>>>>>>>>>>>>>>>>>>>>>>>>>>>>>>>>>>>;###ooX.",
".oo:$**>>******7*7777474=7===7====777777447777777777777;;#$$::o-",
".o::$$*$***6*4444*4=*4*4=44=444444444444444444444444445;#$$#:::-",
".o::$*$*>46,64**=4==44,4=444444444444444444444444464445#####:::-",
".o::>$$$>746*4=4*4*44,6,44444444444444444444444446,6445##$$#%22-",
" o::>$$>>7*=44****4444,=4=44444444444444444444444464445;$$$#@2--",
" o::$>$$>**44***=***==444**444444444444444,444444444445;$#;#@@- ",
" o::$>>$>**4=4=44*44OOOOOOOO44444444OOOOOOOO44444444445;$;##X   ",
" o::>$>$>***=*444=OOOOOOOOOOO444444OOOOOOOOOOO444444445;$##;ooo ",
" o::>>>>>7*=444,4OOOO88888OOOO4444OOOOOOOOOOOOO44444435;##;#::o-",
" o::$$>>>4*44*,6OOOO8888888OOOO44OOOOOOOOOOOOOOO4444544;####:::-",
" o::$*>>>*=4444,OOO888888888OOOOOOOOOOOOOOOOOOOO4444444;$$;;:::-",
".o::>>*>>7*4*44OOOO8888OOOOOOOOOOOOOOOOOOOOOOOOOO444444$$$##:::-",
"Xo-:*>>>>74==*4OOO8888OOOOOOOOOOOOOOOOOOOOOOOOOOO444435;;#$;:::-",
"X.--*>>>>*44444OOO888OOOOOOOOOOOOOOOOOOOOOOOOOOOO444545;##$$:::-",
"XX..>>&>>===*44OOO888OOOOOOOOOOOOOOOOOOOOOOOOOOOO444445;;#;;:::-",
"..oo>>>>>744444OOO88OOOOOOOOOOOOOOOOOOOOOOOOOOOOO444344;$;$;::2-",
".oo:>>>>>*44*44OOO88OOOOOOOOOOOOOOOOOOOOOOOOOOOOO445344;##$;::2-",
".o::>>>>>74==44OOO8OOOOOOOOOOOOOOOOOOOOOOOOOOOOOO445444;;;;;::2-",
".o::>>>>>744=44OOO8OOOOOOOOOOOOOOOOOOOOOOOOOOOOOO444445;$;#;::2-",
".o::>>>>>44444=OOOOOOOOOOOOOOOOOOOOOOOOOOOOOOOOOO444445;;$#;:22-",
".o-2>>>>>74444=OOOOOOOOOOOOOOOOOOOOOOOOOOOOOOOOOO444445;;;$$:2--",
"..-->>>>>7===44=OOOOOOOOOOOOOOOOOOOOOOOOOOOOOOOO4444434;;;;;---.",
"XXXX>>>>>7444444OOOOOOOOOOOOOOOOOOOOOOOOOOOOOOOO4344534;;#$;XX.X",
"oooo>>>>>74444444OOOOOOOOOOOOOOOOOOOOOOOOOOOOOO45344534;;;$;oooo",
"::::>>>>>74444444OOOOOOOOOOOOOOOOOOOOOOOOOOOOOO44344544;;;$#::::",
"::::>>>>>744444444OOOOOOOOOOOOOOOOOOOOOOOOOOOO445444445;$##;::::",
"::::>>>>>744444444OOOOOOOOOOOOOOOOOOOOOOOOOOOO453444445;;#;;::::",
"::::>>>>>4444444444OOOOOOOOOOOOOOOOOOOOOOOOOO4,44443445;;$;;::::",
"22:2>>>>>44444444444OOOOOOOOOOOOOOOOOOOOOOOO4,6,4453445;;$;;2222",
"-2-->>>>>744444444444OOOOOOOOOOOOOOOOOOOOOO444,44354445;;;$;----",
"XXXX>>>>>7444444444444OOOOOOOOOOOOOOOOOOOO4444445444344;;;$$.XX.",
"XXoo>>>>>74444444444444OOOOOOOOOOOOOOOOOO44444444444544;;;;;ooo.",
"Xoo:>>>>>444444444444444OOOOOOOOOOOOOOOO444444444445445;;;;;::o-",
"Xo::>>>>>4444444444444444OOOOOOOOOOOOOO3444453444433445;;;;;++:-",
".o::>>>>>74444444444444444OOOOOOOOOOOO44445534444453445;;;;;:::-",
".o::>>>>>744444444444444444OOOOOOOOOO444443344444553445;$##;:22-",
".o::>>>>>7444444444444444444OOOOOOOO4444444444444544445;;$;;22--",
"Xo::>>>>>44444444444444444444OOOOOO44553444443444556345;;$$#---.",
"Xo::>>>>>444553444444444445544OOOO55344444445344446,645;#### ..X",
"Xo::>>>>>7444444444555545533444OO4533444555353444446445##;$;ooo.",
"Xo::>>>>>7444444445334555334445344444445533445555534345;$###::o-",
"Xo::>>>>>7444444444444334444445344444445344444454445445$#$$#:::-",
".o::>>>>>7445345534445444445534444555343445444444454445;#$;;:::-",
".o::>>>>>7444453344445534445334444444444443455554444445##;#$:::-",
"Xo-:>>>>>7544444444443334443444444444444444443333444445;;$$$:::-",
"X.-->>>>>7555555555555555555555544455555554455555555555;;$$;:::-",
"XX.X>>>>;;;;;;;;$;;;;;;;;#;;;;;;;;;;;$;;;$;;;;;;;#;;;#$>;;;;::+-",
"..oo>>>;;;$;;;;;;;;;;#;$#####$#;$$;;$;;;$;$;;$;#;$;;;$;;>#;#::+-",
" oo:>>;;;;;$;;$;;;$$$##;#$##$$$;$$;;;;$;;;;;;;#$$$###$;$$>$#:@:-",
" o::>;;;;$;;;$$$##$$;;###;;$$#$$##;;;;;;;;;;$$$;##$;$$;$$;>#@@:-",
" o::;;;;;;;;;;;;$$;;##;;;;#;#;;#;;#$#;;;;;;;;;;;;;;#$$;;#;;>:@:-",
" o:::::::%@@:22-.o::::2-.o:::22-.o::::::::::::2-.o::::2-.o:::@+-",
" o-22::@@::222--.o::::2-Xo-222--.o-2222262:2:2--.o::::2-.o-:::-+",
"  ----@--------.Xo::::2-X.-----...-----661-----.Xo::::2-..----- ",
"      @..XXXXX.X.o::::2-XXXXXXX.XXXX...661.XXXXXXo::::2-.. .    "
};
